<?xml version="1.0" encoding="UTF-8" standalone="no"?>
<!DOCTYPE svg PUBLIC "-//W3C//DTD SVG 1.1//EN"
 "http://www.w3.org/Graphics/SVG/1.1/DTD/svg11.dtd">
<!-- Generated by graphviz version 2.43.0 (0)
 -->
<!-- Title: Rinna API Architecture Pages: 1 -->
<svg width="1795pt" height="1443pt"
 viewBox="0.00 0.00 1795.00 1443.00" xmlns="http://www.w3.org/2000/svg" xmlns:xlink="http://www.w3.org/1999/xlink">
<g id="graph0" class="graph" transform="scale(1 1) rotate(0) translate(144 1299)">
<title>Rinna API Architecture</title>
<polygon fill="white" stroke="transparent" points="-144,144 -144,-1299 1651,-1299 1651,144 -144,144"/>
<text text-anchor="middle" x="753.5" y="-9.2" font-family="Sans-Serif" font-size="16.00" fill="#2d3436">Rinna API Architecture</text>
<g id="clust1" class="cluster">
<title>cluster_API Documentation</title>
<path fill="#e5f5fd" stroke="#aeb6be" d="M20,-209C20,-209 258,-209 258,-209 264,-209 270,-215 270,-221 270,-221 270,-562 270,-562 270,-568 264,-574 258,-574 258,-574 20,-574 20,-574 14,-574 8,-568 8,-562 8,-562 8,-221 8,-221 8,-215 14,-209 20,-209"/>
<text text-anchor="middle" x="74" y="-560.4" font-family="Sans-Serif" font-size="12.00" fill="#2d3436">API Documentation</text>
</g>
<g id="clust2" class="cluster">
<title>cluster_API Server (Go)</title>
<path fill="#e5f5fd" stroke="#aeb6be" d="M300,-392C300,-392 986,-392 986,-392 992,-392 998,-398 998,-404 998,-404 998,-753 998,-753 998,-759 992,-765 986,-765 986,-765 300,-765 300,-765 294,-765 288,-759 288,-753 288,-753 288,-404 288,-404 288,-398 294,-392 300,-392"/>
<text text-anchor="middle" x="342.5" y="-751.4" font-family="Sans-Serif" font-size="12.00" fill="#2d3436">API Server (Go)</text>
</g>
<g id="clust3" class="cluster">
<title>cluster_API Handlers</title>
<path fill="#ebf3e7" stroke="#aeb6be" d="M308,-400C308,-400 978,-400 978,-400 984,-400 990,-406 990,-412 990,-412 990,-562 990,-562 990,-568 984,-574 978,-574 978,-574 308,-574 308,-574 302,-574 296,-568 296,-562 296,-562 296,-412 296,-412 296,-406 302,-400 308,-400"/>
<text text-anchor="middle" x="342.5" y="-560.4" font-family="Sans-Serif" font-size="12.00" fill="#2d3436">API Handlers</text>
</g>
<g id="clust4" class="cluster">
<title>cluster_Core Services (Java)</title>
<path fill="#e5f5fd" stroke="#aeb6be" d="M1089,-201C1089,-201 1487,-201 1487,-201 1493,-201 1499,-207 1499,-213 1499,-213 1499,-562 1499,-562 1499,-568 1493,-574 1487,-574 1487,-574 1089,-574 1089,-574 1083,-574 1077,-568 1077,-562 1077,-562 1077,-213 1077,-213 1077,-207 1083,-201 1089,-201"/>
<text text-anchor="middle" x="1145.5" y="-560.4" font-family="Sans-Serif" font-size="12.00" fill="#2d3436">Core Services (Java)</text>
</g>
<g id="clust5" class="cluster">
<title>cluster_Domain Services</title>
<path fill="#ebf3e7" stroke="#aeb6be" d="M1097,-209C1097,-209 1479,-209 1479,-209 1485,-209 1491,-215 1491,-221 1491,-221 1491,-371 1491,-371 1491,-377 1485,-383 1479,-383 1479,-383 1097,-383 1097,-383 1091,-383 1085,-377 1085,-371 1085,-371 1085,-221 1085,-221 1085,-215 1091,-209 1097,-209"/>
<text text-anchor="middle" x="1143.5" y="-369.4" font-family="Sans-Serif" font-size="12.00" fill="#2d3436">Domain Services</text>
</g>
<g id="clust6" class="cluster">
<title>cluster_Utilities (Python)</title>
<path fill="#e5f5fd" stroke="#aeb6be" d="M1211,-782C1211,-782 1305,-782 1305,-782 1311,-782 1317,-788 1317,-794 1317,-794 1317,-1135 1317,-1135 1317,-1141 1311,-1147 1305,-1147 1305,-1147 1211,-1147 1211,-1147 1205,-1147 1199,-1141 1199,-1135 1199,-1135 1199,-794 1199,-794 1199,-788 1205,-782 1211,-782"/>
<text text-anchor="middle" x="1256" y="-1133.4" font-family="Sans-Serif" font-size="12.00" fill="#2d3436">Utilities (Python)</text>
</g>
<g id="clust7" class="cluster">
<title>cluster_Build System</title>
<path fill="#e5f5fd" stroke="#aeb6be" d="M169,-591C169,-591 263,-591 263,-591 269,-591 275,-597 275,-603 275,-603 275,-944 275,-944 275,-950 269,-956 263,-956 263,-956 169,-956 169,-956 163,-956 157,-950 157,-944 157,-944 157,-603 157,-603 157,-597 163,-591 169,-591"/>
<text text-anchor="middle" x="204" y="-942.4" font-family="Sans-Serif" font-size="12.00" fill="#2d3436">Build System</text>
</g>
<!-- 4f3ec1c93ef9447bb2ae78e741769f67 -->
<g id="node1" class="node">
<title>4f3ec1c93ef9447bb2ae78e741769f67</title>
<image xlink:href="/home/emumford/.local/lib/python3.13/site-packages/resources/onprem/client/user.png" width="101px" height="101px" preserveAspectRatio="xMinYMin meet" x="701.5" y="-1100"/>
<text text-anchor="middle" x="752" y="-984.6" font-family="Sans-Serif" font-size="13.00" fill="#2d3436">End User</text>
</g>
<!-- 53720571450b4c98b929562a14ed6824 -->
<g id="node2" class="node">
<title>53720571450b4c98b929562a14ed6824</title>
<image xlink:href="/home/emumford/.local/lib/python3.13/site-packages/resources/onprem/client/client.png" width="101px" height="101px" preserveAspectRatio="xMinYMin meet" x="701.5" y="-909"/>
<text text-anchor="middle" x="752" y="-793.6" font-family="Sans-Serif" font-size="13.00" fill="#2d3436">Client Application</text>
</g>
<!-- 4f3ec1c93ef9447bb2ae78e741769f67&#45;&gt;53720571450b4c98b929562a14ed6824 -->
<g id="edge11" class="edge">
<title>4f3ec1c93ef9447bb2ae78e741769f67&#45;&gt;53720571450b4c98b929562a14ed6824</title>
<path fill="none" stroke="#7b8894" d="M752,-980.8C752,-966.74 752,-951.81 752,-937.41"/>
<polygon fill="#7b8894" stroke="#7b8894" points="755.5,-937.04 752,-927.04 748.5,-937.04 755.5,-937.04"/>
</g>
<!-- 4f3466fcf2154a678ecb4425ff950f66 -->
<g id="node3" class="node">
<title>4f3466fcf2154a678ecb4425ff950f66</title>
<text text-anchor="middle" x="211" y="-220.6" font-family="Sans-Serif" font-size="13.00" fill="#2d3436">Swagger UI</text>
</g>
<!-- 53720571450b4c98b929562a14ed6824&#45;&gt;4f3466fcf2154a678ecb4425ff950f66 -->
<g id="edge22" class="edge">
<title>53720571450b4c98b929562a14ed6824&#45;&gt;4f3466fcf2154a678ecb4425ff950f66</title>
<path fill="none" stroke="#7b8894" d="M802.58,-839.22C877.18,-812.27 1008,-765 1008,-765 1008,-765 1008,-591 1008,-591 1008,-591 1000,-392 1000,-392 1000,-392 456.44,-319.32 271.65,-294.61"/>
<polygon fill="#7b8894" stroke="#7b8894" points="271.93,-291.12 261.56,-293.26 271,-298.05 271.93,-291.12"/>
</g>
<!-- b773f444f4274e579557c456da5fd90a -->
<g id="node6" class="node">
<title>b773f444f4274e579557c456da5fd90a</title>
<image xlink:href="/home/emumford/.local/lib/python3.13/site-packages/resources/programming/language/go.png" width="101px" height="101px" preserveAspectRatio="xMinYMin meet" x="520.5" y="-718"/>
<text text-anchor="middle" x="571" y="-602.6" font-family="Sans-Serif" font-size="13.00" fill="#2d3436">API Server</text>
</g>
<!-- 53720571450b4c98b929562a14ed6824&#45;&gt;b773f444f4274e579557c456da5fd90a -->
<g id="edge12" class="edge">
<title>53720571450b4c98b929562a14ed6824&#45;&gt;b773f444f4274e579557c456da5fd90a</title>
<path fill="none" stroke="#7b8894" d="M701.34,-804.6C678.78,-781.05 652.1,-753.19 628.77,-728.82"/>
<polygon fill="#7b8894" stroke="#7b8894" points="631.09,-726.19 621.65,-721.39 626.04,-731.03 631.09,-726.19"/>
</g>
<!-- 28e7ce7b46104023a8e0a620d9e5f6bb -->
<g id="node4" class="node">
<title>28e7ce7b46104023a8e0a620d9e5f6bb</title>
<text text-anchor="middle" x="211" y="-411.6" font-family="Sans-Serif" font-size="13.00" fill="#2d3436">OpenAPI Spec</text>
</g>
<!-- 28e7ce7b46104023a8e0a620d9e5f6bb&#45;&gt;4f3466fcf2154a678ecb4425ff950f66 -->
<g id="edge21" class="edge">
<title>28e7ce7b46104023a8e0a620d9e5f6bb&#45;&gt;4f3466fcf2154a678ecb4425ff950f66</title>
<path fill="none" stroke="#7b8894" d="M211,-407.8C211,-393.74 211,-378.81 211,-364.41"/>
<polygon fill="#7b8894" stroke="#7b8894" points="214.5,-364.04 211,-354.04 207.5,-364.04 214.5,-364.04"/>
</g>
<!-- 01af568587094d29b5e3566d88a26c45 -->
<g id="node5" class="node">
<title>01af568587094d29b5e3566d88a26c45</title>
<text text-anchor="middle" x="67" y="-411.6" font-family="Sans-Serif" font-size="13.00" fill="#2d3436">Doc Generator</text>
</g>
<!-- b773f444f4274e579557c456da5fd90a&#45;&gt;28e7ce7b46104023a8e0a620d9e5f6bb -->
<g id="edge20" class="edge">
<title>b773f444f4274e579557c456da5fd90a&#45;&gt;28e7ce7b46104023a8e0a620d9e5f6bb</title>
<path fill="none" stroke="blue" stroke-dasharray="5,2" d="M520.38,-650.07C438.48,-623.49 286,-574 286,-574 286,-574 278.4,-564.22 268.03,-550.88"/>
<polygon fill="blue" stroke="blue" points="270.55,-548.42 261.65,-542.67 265.02,-552.71 270.55,-548.42"/>
</g>
<!-- b5074fbd1e9a4582bc66263c318b8528 -->
<g id="node7" class="node">
<title>b5074fbd1e9a4582bc66263c318b8528</title>
<text text-anchor="middle" x="499" y="-411.6" font-family="Sans-Serif" font-size="13.00" fill="#2d3436">Project Handler</text>
</g>
<!-- b773f444f4274e579557c456da5fd90a&#45;&gt;b5074fbd1e9a4582bc66263c318b8528 -->
<g id="edge1" class="edge">
<title>b773f444f4274e579557c456da5fd90a&#45;&gt;b5074fbd1e9a4582bc66263c318b8528</title>
<path fill="none" stroke="#7b8894" d="M545.21,-598.8C539.75,-584.46 533.94,-569.23 528.36,-554.58"/>
<polygon fill="#7b8894" stroke="#7b8894" points="531.56,-553.14 524.73,-545.04 525.02,-555.64 531.56,-553.14"/>
</g>
<!-- 378dcf95202941848c7a7ba3058b3ea4 -->
<g id="node8" class="node">
<title>378dcf95202941848c7a7ba3058b3ea4</title>
<text text-anchor="middle" x="931" y="-411.6" font-family="Sans-Serif" font-size="13.00" fill="#2d3436">WorkItem Handler</text>
</g>
<!-- b773f444f4274e579557c456da5fd90a&#45;&gt;378dcf95202941848c7a7ba3058b3ea4 -->
<g id="edge2" class="edge">
<title>b773f444f4274e579557c456da5fd90a&#45;&gt;378dcf95202941848c7a7ba3058b3ea4</title>
<path fill="none" stroke="#7b8894" d="M621.83,-650.18C704.5,-623.62 859,-574 859,-574 859,-574 865.39,-565.43 874.37,-553.4"/>
<polygon fill="#7b8894" stroke="#7b8894" points="877.43,-555.15 880.6,-545.05 871.82,-550.97 877.43,-555.15"/>
</g>
<!-- edf1092f968e4354ba975779105c8035 -->
<g id="node9" class="node">
<title>edf1092f968e4354ba975779105c8035</title>
<text text-anchor="middle" x="355" y="-411.6" font-family="Sans-Serif" font-size="13.00" fill="#2d3436">Release Handler</text>
</g>
<!-- b773f444f4274e579557c456da5fd90a&#45;&gt;edf1092f968e4354ba975779105c8035 -->
<g id="edge3" class="edge">
<title>b773f444f4274e579557c456da5fd90a&#45;&gt;edf1092f968e4354ba975779105c8035</title>
<path fill="none" stroke="#7b8894" d="M520.23,-633.89C478.77,-607.26 427,-574 427,-574 427,-574 420.61,-565.43 411.63,-553.4"/>
<polygon fill="#7b8894" stroke="#7b8894" points="414.18,-550.97 405.4,-545.05 408.57,-555.15 414.18,-550.97"/>
</g>
<!-- 1c5ea05dde62469996823039bdb71b5a -->
<g id="node10" class="node">
<title>1c5ea05dde62469996823039bdb71b5a</title>
<text text-anchor="middle" x="787" y="-411.6" font-family="Sans-Serif" font-size="13.00" fill="#2d3436">Health Handler</text>
</g>
<!-- b773f444f4274e579557c456da5fd90a&#45;&gt;1c5ea05dde62469996823039bdb71b5a -->
<g id="edge4" class="edge">
<title>b773f444f4274e579557c456da5fd90a&#45;&gt;1c5ea05dde62469996823039bdb71b5a</title>
<path fill="none" stroke="#7b8894" d="M621.77,-633.89C663.23,-607.26 715,-574 715,-574 715,-574 721.39,-565.43 730.37,-553.4"/>
<polygon fill="#7b8894" stroke="#7b8894" points="733.43,-555.15 736.6,-545.05 727.82,-550.97 733.43,-555.15"/>
</g>
<!-- 43ead88e04394a16b936e6e92ba8112d -->
<g id="node11" class="node">
<title>43ead88e04394a16b936e6e92ba8112d</title>
<text text-anchor="middle" x="643" y="-411.6" font-family="Sans-Serif" font-size="13.00" fill="#2d3436">Webhook Handler</text>
</g>
<!-- b773f444f4274e579557c456da5fd90a&#45;&gt;43ead88e04394a16b936e6e92ba8112d -->
<g id="edge5" class="edge">
<title>b773f444f4274e579557c456da5fd90a&#45;&gt;43ead88e04394a16b936e6e92ba8112d</title>
<path fill="none" stroke="#7b8894" d="M596.79,-598.8C602.25,-584.46 608.06,-569.23 613.64,-554.58"/>
<polygon fill="#7b8894" stroke="#7b8894" points="616.98,-555.64 617.27,-545.04 610.44,-553.14 616.98,-555.64"/>
</g>
<!-- df5ea78558ed4789ae846cfb5362a38e -->
<g id="node13" class="node">
<title>df5ea78558ed4789ae846cfb5362a38e</title>
<text text-anchor="middle" x="1288" y="-220.6" font-family="Sans-Serif" font-size="13.00" fill="#2d3436">Project Service</text>
</g>
<!-- b5074fbd1e9a4582bc66263c318b8528&#45;&gt;df5ea78558ed4789ae846cfb5362a38e -->
<g id="edge13" class="edge">
<title>b5074fbd1e9a4582bc66263c318b8528&#45;&gt;df5ea78558ed4789ae846cfb5362a38e</title>
<path fill="none" stroke="#7b8894" d="M549.79,-416.6C561.7,-402.78 571,-392 571,-392 571,-392 1216,-383 1216,-383 1216,-383 1222.39,-374.43 1231.37,-362.4"/>
<polygon fill="#7b8894" stroke="#7b8894" points="1234.43,-364.15 1237.6,-354.05 1228.82,-359.97 1234.43,-364.15"/>
</g>
<!-- c4545edd79b54a71910b4965cca2c986 -->
<g id="node14" class="node">
<title>c4545edd79b54a71910b4965cca2c986</title>
<text text-anchor="middle" x="1432" y="-220.6" font-family="Sans-Serif" font-size="13.00" fill="#2d3436">WorkItem Service</text>
</g>
<!-- 378dcf95202941848c7a7ba3058b3ea4&#45;&gt;c4545edd79b54a71910b4965cca2c986 -->
<g id="edge14" class="edge">
<title>378dcf95202941848c7a7ba3058b3ea4&#45;&gt;c4545edd79b54a71910b4965cca2c986</title>
<path fill="none" stroke="#7b8894" d="M981.64,-444.41C1020.31,-420.67 1067,-392 1067,-392 1067,-392 1360,-383 1360,-383 1360,-383 1366.39,-374.43 1375.37,-362.4"/>
<polygon fill="#7b8894" stroke="#7b8894" points="1378.43,-364.15 1381.6,-354.05 1372.82,-359.97 1378.43,-364.15"/>
</g>
<!-- 531da20de5cd4e7cafa6fcccbd24a224 -->
<g id="node15" class="node">
<title>531da20de5cd4e7cafa6fcccbd24a224</title>
<text text-anchor="middle" x="1144" y="-220.6" font-family="Sans-Serif" font-size="13.00" fill="#2d3436">Release Service</text>
</g>
<!-- edf1092f968e4354ba975779105c8035&#45;&gt;531da20de5cd4e7cafa6fcccbd24a224 -->
<g id="edge15" class="edge">
<title>edf1092f968e4354ba975779105c8035&#45;&gt;531da20de5cd4e7cafa6fcccbd24a224</title>
<path fill="none" stroke="#7b8894" d="M405.79,-416.6C417.7,-402.78 427,-392 427,-392 427,-392 910.34,-320.88 1083.33,-295.43"/>
<polygon fill="#7b8894" stroke="#7b8894" points="1083.91,-298.88 1093.3,-293.96 1082.89,-291.95 1083.91,-298.88"/>
</g>
<!-- cebeca61ad624059aa1f498f34a271d9 -->
<g id="node12" class="node">
<title>cebeca61ad624059aa1f498f34a271d9</title>
<image xlink:href="/home/emumford/.local/lib/python3.13/site-packages/resources/programming/language/java.png" width="101px" height="101px" preserveAspectRatio="xMinYMin meet" x="1237.5" y="-527"/>
<text text-anchor="middle" x="1288" y="-411.6" font-family="Sans-Serif" font-size="13.00" fill="#2d3436">Rinna Core</text>
</g>
<!-- cebeca61ad624059aa1f498f34a271d9&#45;&gt;df5ea78558ed4789ae846cfb5362a38e -->
<g id="edge6" class="edge">
<title>cebeca61ad624059aa1f498f34a271d9&#45;&gt;df5ea78558ed4789ae846cfb5362a38e</title>
<path fill="none" stroke="#7b8894" d="M1288,-407.8C1288,-393.74 1288,-378.81 1288,-364.41"/>
<polygon fill="#7b8894" stroke="#7b8894" points="1291.5,-364.04 1288,-354.04 1284.5,-364.04 1291.5,-364.04"/>
</g>
<!-- cebeca61ad624059aa1f498f34a271d9&#45;&gt;c4545edd79b54a71910b4965cca2c986 -->
<g id="edge7" class="edge">
<title>cebeca61ad624059aa1f498f34a271d9&#45;&gt;c4545edd79b54a71910b4965cca2c986</title>
<path fill="none" stroke="#7b8894" d="M1338.59,-410.5C1350.6,-395.08 1360,-383 1360,-383 1360,-383 1366.39,-374.43 1375.37,-362.4"/>
<polygon fill="#7b8894" stroke="#7b8894" points="1378.43,-364.15 1381.6,-354.05 1372.82,-359.97 1378.43,-364.15"/>
</g>
<!-- cebeca61ad624059aa1f498f34a271d9&#45;&gt;531da20de5cd4e7cafa6fcccbd24a224 -->
<g id="edge8" class="edge">
<title>cebeca61ad624059aa1f498f34a271d9&#45;&gt;531da20de5cd4e7cafa6fcccbd24a224</title>
<path fill="none" stroke="#7b8894" d="M1237.41,-410.5C1225.4,-395.08 1216,-383 1216,-383 1216,-383 1209.61,-374.43 1200.63,-362.4"/>
<polygon fill="#7b8894" stroke="#7b8894" points="1203.18,-359.97 1194.4,-354.05 1197.57,-364.15 1203.18,-359.97"/>
</g>
<!-- 43fcf05b8a9c48639368f9f3c4ab1e2c -->
<g id="node18" class="node">
<title>43fcf05b8a9c48639368f9f3c4ab1e2c</title>
<image xlink:href="/home/emumford/.local/lib/python3.13/site-packages/resources/onprem/database/postgresql.png" width="101px" height="101px" preserveAspectRatio="xMinYMin meet" x="1237.5" y="-145"/>
<text text-anchor="middle" x="1288" y="-29.6" font-family="Sans-Serif" font-size="13.00" fill="#2d3436">Database</text>
</g>
<!-- df5ea78558ed4789ae846cfb5362a38e&#45;&gt;43fcf05b8a9c48639368f9f3c4ab1e2c -->
<g id="edge16" class="edge">
<title>df5ea78558ed4789ae846cfb5362a38e&#45;&gt;43fcf05b8a9c48639368f9f3c4ab1e2c</title>
<path fill="none" stroke="#7b8894" d="M1288,-216.8C1288,-202.74 1288,-187.81 1288,-173.41"/>
<polygon fill="#7b8894" stroke="#7b8894" points="1291.5,-173.04 1288,-163.04 1284.5,-173.04 1291.5,-173.04"/>
</g>
<!-- c4545edd79b54a71910b4965cca2c986&#45;&gt;43fcf05b8a9c48639368f9f3c4ab1e2c -->
<g id="edge17" class="edge">
<title>c4545edd79b54a71910b4965cca2c986&#45;&gt;43fcf05b8a9c48639368f9f3c4ab1e2c</title>
<path fill="none" stroke="#7b8894" d="M1381.43,-218.13C1369.63,-202.64 1356.99,-186.05 1344.93,-170.22"/>
<polygon fill="#7b8894" stroke="#7b8894" points="1347.53,-167.86 1338.69,-162.03 1341.96,-172.1 1347.53,-167.86"/>
</g>
<!-- 531da20de5cd4e7cafa6fcccbd24a224&#45;&gt;43fcf05b8a9c48639368f9f3c4ab1e2c -->
<g id="edge18" class="edge">
<title>531da20de5cd4e7cafa6fcccbd24a224&#45;&gt;43fcf05b8a9c48639368f9f3c4ab1e2c</title>
<path fill="none" stroke="#7b8894" d="M1194.57,-218.13C1206.37,-202.64 1219.01,-186.05 1231.07,-170.22"/>
<polygon fill="#7b8894" stroke="#7b8894" points="1234.04,-172.1 1237.31,-162.03 1228.47,-167.86 1234.04,-172.1"/>
</g>
<!-- 8850248a8d9e401c8778121775a79236 -->
<g id="node16" class="node">
<title>8850248a8d9e401c8778121775a79236</title>
<image xlink:href="/home/emumford/.local/lib/python3.13/site-packages/resources/programming/language/python.png" width="101px" height="101px" preserveAspectRatio="xMinYMin meet" x="1207.5" y="-1100"/>
<text text-anchor="middle" x="1258" y="-984.6" font-family="Sans-Serif" font-size="13.00" fill="#2d3436">Utilities</text>
</g>
<!-- d868e05d043a4e19ac1d5a40404ca57c -->
<g id="node17" class="node">
<title>d868e05d043a4e19ac1d5a40404ca57c</title>
<text text-anchor="middle" x="1258" y="-793.6" font-family="Sans-Serif" font-size="13.00" fill="#2d3436">Report Generator</text>
</g>
<!-- 8850248a8d9e401c8778121775a79236&#45;&gt;d868e05d043a4e19ac1d5a40404ca57c -->
<g id="edge9" class="edge">
<title>8850248a8d9e401c8778121775a79236&#45;&gt;d868e05d043a4e19ac1d5a40404ca57c</title>
<path fill="none" stroke="#7b8894" d="M1258,-980.8C1258,-966.74 1258,-951.81 1258,-937.41"/>
<polygon fill="#7b8894" stroke="#7b8894" points="1261.5,-937.04 1258,-927.04 1254.5,-937.04 1261.5,-937.04"/>
</g>
<!-- ba8d5eeeed444349ae08f8dd2de06c03 -->
<g id="node19" class="node">
<title>ba8d5eeeed444349ae08f8dd2de06c03</title>
<text text-anchor="middle" x="216" y="-793.6" font-family="Sans-Serif" font-size="13.00" fill="#2d3436">Build Script</text>
</g>
<!-- ba8d5eeeed444349ae08f8dd2de06c03&#45;&gt;b773f444f4274e579557c456da5fd90a -->
<g id="edge23" class="edge">
<title>ba8d5eeeed444349ae08f8dd2de06c03&#45;&gt;b773f444f4274e579557c456da5fd90a</title>
<path fill="none" stroke="#7b8894" d="M266.86,-830.42C331.45,-796.04 442.71,-736.8 511.26,-700.3"/>
<polygon fill="#7b8894" stroke="#7b8894" points="513.05,-703.32 520.23,-695.53 509.76,-697.14 513.05,-703.32"/>
</g>
<!-- 8d95808bb7194c72903db4e91d643298 -->
<g id="node20" class="node">
<title>8d95808bb7194c72903db4e91d643298</title>
<text text-anchor="middle" x="216" y="-602.6" font-family="Sans-Serif" font-size="13.00" fill="#2d3436">Swagger Generator</text>
</g>
<!-- ba8d5eeeed444349ae08f8dd2de06c03&#45;&gt;8d95808bb7194c72903db4e91d643298 -->
<g id="edge10" class="edge">
<title>ba8d5eeeed444349ae08f8dd2de06c03&#45;&gt;8d95808bb7194c72903db4e91d643298</title>
<path fill="none" stroke="#7b8894" d="M216,-789.8C216,-775.74 216,-760.81 216,-746.41"/>
<polygon fill="#7b8894" stroke="#7b8894" points="219.5,-746.04 216,-736.04 212.5,-746.04 219.5,-746.04"/>
</g>
<!-- 8d95808bb7194c72903db4e91d643298&#45;&gt;28e7ce7b46104023a8e0a620d9e5f6bb -->
<g id="edge19" class="edge">
<title>8d95808bb7194c72903db4e91d643298&#45;&gt;28e7ce7b46104023a8e0a620d9e5f6bb</title>
<path fill="none" stroke="#7b8894" d="M214.21,-598.8C213.84,-584.74 213.44,-569.81 213.06,-555.41"/>
<polygon fill="#7b8894" stroke="#7b8894" points="216.55,-554.95 212.79,-545.04 209.55,-555.13 216.55,-554.95"/>
</g>
</g>
</svg>
