<svg xmlns="http://www.w3.org/2000/svg" viewBox="8 173.004 372.6600036621094 255.00000000000003"> <svg xmlns="http://www.w3.org/2000/svg" xmlns:xlink="http://www.w3.org/1999/xlink" version="1.1" id="Livello_1" x="78" y="243.004" viewBox="271.8999938964844 768 268.3000183105469 409.39990234375" xml:space="preserve" height="115" width="75.359375" preserveAspectRatio="xMinYMin" enable-background="new 0 0 2000 2000" style="overflow: visible;"><linearGradient id="SVGID_1_" gradientUnits="userSpaceOnUse" x1="313.1569" y1="1137.4934" x2="534.2805" y2="732.999" gradientTransform="matrix(0.9935 -0.1139 0.1139 0.9935 -130.6481 62.9637)" style=""><stop offset="0" style="stop-color: #876BFF;"></stop><stop offset="1" style="stop-color: #6F9CFF;"></stop></linearGradient><path class="st0" d="M456.9,768c-133.1,66.8-185,236.9-185,236.9l43.9,56.7c0,0,29.7-150.6,139.7-222c0,0-102,96.7-124.7,229.1l0,0  c0,0-10.9,52.7-5.1,108.7c0,0,15.3-83.7,25.9-108l47.6-0.3C420.6,934,539.5,841.9,539.5,841.9l0.7-73.1L456.9,768z" style="fill: url(#SVGID_1_);"></path></svg> <svg x="166" y="279.87999923706053" viewBox="3.5900001525878906 13.829999923706055 144.66000366210938 41.23999786376953" height="41.23999786376953" width="144.66000366210938" style="overflow: visible;"><g fill="#000" style=""><path d="M30.73 54.60L22.31 54.60L14.30 40.46L10.87 40.46L10.87 54.60L3.59 54.60L3.59 18.30L17.21 18.30Q21.42 18.30 24.39 19.79Q27.35 21.27 28.83 23.79Q30.32 26.31 30.32 29.43L30.32 29.43Q30.32 33.02 28.24 35.91Q26.16 38.79 22.05 39.88L22.05 39.88L30.73 54.60ZM10.87 24.34L10.87 35.00L16.95 35.00Q19.92 35.00 21.37 33.57Q22.83 32.14 22.83 29.59L22.83 29.59Q22.83 27.09 21.37 25.71Q19.92 24.34 16.95 24.34L16.95 24.34L10.87 24.34ZM40.61 22.36Q38.69 22.36 37.41 21.14Q36.14 19.92 36.14 18.10L36.14 18.10Q36.14 16.28 37.41 15.05Q38.69 13.83 40.61 13.83L40.61 13.83Q42.54 13.83 43.81 15.05Q45.08 16.28 45.08 18.10L45.08 18.10Q45.08 19.92 43.81 21.14Q42.54 22.36 40.61 22.36L40.61 22.36ZM36.92 25.79L44.20 25.79L44.20 54.60L36.92 54.60L36.92 25.79ZM67.34 25.38Q72.49 25.38 75.66 28.63Q78.83 31.88 78.83 37.70L78.83 37.70L78.83 54.60L71.55 54.60L71.55 38.69Q71.55 35.26 69.84 33.41Q68.12 31.56 65.16 31.56L65.16 31.56Q62.14 31.56 60.40 33.41Q58.66 35.26 58.66 38.69L58.66 38.69L58.66 54.60L51.38 54.60L51.38 25.79L58.66 25.79L58.66 29.38Q60.11 27.51 62.37 26.44Q64.64 25.38 67.34 25.38L67.34 25.38ZM101.71 25.38Q106.86 25.38 110.03 28.63Q113.20 31.88 113.20 37.70L113.20 37.70L113.20 54.60L105.92 54.60L105.92 38.69Q105.92 35.26 104.21 33.41Q102.49 31.56 99.53 31.56L99.53 31.56Q96.51 31.56 94.77 33.41Q93.03 35.26 93.03 38.69L93.03 38.69L93.03 54.60L85.75 54.60L85.75 25.79L93.03 25.79L93.03 29.38Q94.48 27.51 96.75 26.44Q99.01 25.38 101.71 25.38L101.71 25.38ZM118.25 40.09Q118.25 35.72 119.99 32.34Q121.73 28.96 124.72 27.14Q127.71 25.32 131.40 25.32L131.40 25.32Q134.63 25.32 137.05 26.62Q139.46 27.92 140.92 29.90L140.92 29.90L140.92 25.79L148.25 25.79L148.25 54.60L140.92 54.60L140.92 50.39Q139.52 52.42 137.05 53.74Q134.58 55.07 131.35 55.07L131.35 55.07Q127.71 55.07 124.72 53.20Q121.73 51.32 119.99 47.92Q118.25 44.51 118.25 40.09L118.25 40.09ZM140.92 40.20Q140.92 37.54 139.88 35.65Q138.84 33.75 137.07 32.73Q135.30 31.72 133.28 31.72L133.28 31.72Q131.25 31.72 129.53 32.71Q127.82 33.70 126.75 35.59Q125.68 37.49 125.68 40.09L125.68 40.09Q125.68 42.69 126.75 44.64Q127.82 46.59 129.56 47.63Q131.30 48.67 133.28 48.67L133.28 48.67Q135.30 48.67 137.07 47.66Q138.84 46.64 139.88 44.75Q140.92 42.85 140.92 40.20L140.92 40.20Z" transform="translate(0, 0)"></path></g></svg></svg>