<?xml version="1.0" encoding="UTF-8" standalone="no"?>
<!DOCTYPE svg PUBLIC "-//W3C//DTD SVG 1.1//EN"
 "http://www.w3.org/Graphics/SVG/1.1/DTD/svg11.dtd">
<!-- Generated by graphviz version 2.43.0 (0)
 -->
<!-- Title: Rinna Component Diagram Pages: 1 -->
<svg width="1196pt" height="1224pt"
 viewBox="0.00 0.00 1196.00 1224.00" xmlns="http://www.w3.org/2000/svg" xmlns:xlink="http://www.w3.org/1999/xlink">
<g id="graph0" class="graph" transform="scale(1 1) rotate(0) translate(144 1080)">
<title>Rinna Component Diagram</title>
<polygon fill="white" stroke="transparent" points="-144,144 -144,-1080 1052,-1080 1052,144 -144,144"/>
<text text-anchor="middle" x="454" y="-9" font-family="Sans-Serif" font-size="15.00" fill="#2d3436">Rinna Component Diagram</text>
<g id="clust1" class="cluster">
<title>cluster_Core Domain</title>
<path fill="#e5f5fd" stroke="#aeb6be" d="M330,-393C330,-393 733,-393 733,-393 739,-393 745,-399 745,-405 745,-405 745,-556 745,-556 745,-562 739,-568 733,-568 733,-568 330,-568 330,-568 324,-568 318,-562 318,-556 318,-556 318,-405 318,-405 318,-399 324,-393 330,-393"/>
<text text-anchor="middle" x="365.5" y="-554.4" font-family="Sans-Serif" font-size="12.00" fill="#2d3436">Core Domain</text>
</g>
<g id="clust2" class="cluster">
<title>cluster_Service Layer</title>
<path fill="#e5f5fd" stroke="#aeb6be" d="M175,-33C175,-33 268,-33 268,-33 274,-33 280,-39 280,-45 280,-45 280,-916 280,-916 280,-922 274,-928 268,-928 268,-928 175,-928 175,-928 169,-928 163,-922 163,-916 163,-916 163,-45 163,-45 163,-39 169,-33 175,-33"/>
<text text-anchor="middle" x="212" y="-914.4" font-family="Sans-Serif" font-size="12.00" fill="#2d3436">Service Layer</text>
</g>
<g id="clust3" class="cluster">
<title>cluster_Persistence</title>
<path fill="#e5f5fd" stroke="#aeb6be" d="M795,-303C795,-303 888,-303 888,-303 894,-303 900,-309 900,-315 900,-315 900,-646 900,-646 900,-652 894,-658 888,-658 888,-658 795,-658 795,-658 789,-658 783,-652 783,-646 783,-646 783,-315 783,-315 783,-309 789,-303 795,-303"/>
<text text-anchor="middle" x="825.5" y="-644.4" font-family="Sans-Serif" font-size="12.00" fill="#2d3436">Persistence</text>
</g>
<g id="clust4" class="cluster">
<title>cluster_API</title>
<path fill="#e5f5fd" stroke="#aeb6be" d="M20,-303C20,-303 113,-303 113,-303 119,-303 125,-309 125,-315 125,-315 125,-826 125,-826 125,-832 119,-838 113,-838 113,-838 20,-838 20,-838 14,-838 8,-832 8,-826 8,-826 8,-315 8,-315 8,-309 14,-303 20,-303"/>
<text text-anchor="middle" x="26" y="-824.4" font-family="Sans-Serif" font-size="12.00" fill="#2d3436">API</text>
</g>
<!-- 9ee05fc83b44447fabee650f7f34a631 -->
<g id="node1" class="node">
<title>9ee05fc83b44447fabee650f7f34a631</title>
<image xlink:href="/home/emumford/NativeLinuxProjects/Rinna/.venv/lib/python3.13/site-packages/resources/programming/language/java.png" width="101px" height="101px" preserveAspectRatio="xMinYMin meet" x="326" y="-520.5"/>
<text text-anchor="middle" x="376.5" y="-405.1" font-family="Sans-Serif" font-size="13.00" fill="#2d3436">Domain Model</text>
</g>
<!-- 3dd2066fc56145a186cc3bd42fe29c63 -->
<g id="node2" class="node">
<title>3dd2066fc56145a186cc3bd42fe29c63</title>
<image xlink:href="/home/emumford/NativeLinuxProjects/Rinna/.venv/lib/python3.13/site-packages/resources/programming/language/java.png" width="101px" height="101px" preserveAspectRatio="xMinYMin meet" x="481" y="-520.5"/>
<text text-anchor="middle" x="531.5" y="-405.1" font-family="Sans-Serif" font-size="13.00" fill="#2d3436">Domain Services</text>
</g>
<!-- 9ee05fc83b44447fabee650f7f34a631&#45;&gt;3dd2066fc56145a186cc3bd42fe29c63 -->
<g id="edge1" class="edge">
<title>9ee05fc83b44447fabee650f7f34a631&#45;&gt;3dd2066fc56145a186cc3bd42fe29c63</title>
<path fill="none" stroke="#7b8894" d="M427.25,-470C427.25,-470 470.9,-470 470.9,-470"/>
<polygon fill="#7b8894" stroke="#7b8894" points="470.9,-473.5 480.9,-470 470.9,-466.5 470.9,-473.5"/>
</g>
<!-- 4202649e7b66472e970ea49d00010ce0 -->
<g id="node3" class="node">
<title>4202649e7b66472e970ea49d00010ce0</title>
<image xlink:href="/home/emumford/NativeLinuxProjects/Rinna/.venv/lib/python3.13/site-packages/resources/programming/language/java.png" width="101px" height="101px" preserveAspectRatio="xMinYMin meet" x="636" y="-520.5"/>
<text text-anchor="middle" x="686.5" y="-405.1" font-family="Sans-Serif" font-size="13.00" fill="#2d3436">Repositories</text>
</g>
<!-- 3dd2066fc56145a186cc3bd42fe29c63&#45;&gt;4202649e7b66472e970ea49d00010ce0 -->
<g id="edge2" class="edge">
<title>3dd2066fc56145a186cc3bd42fe29c63&#45;&gt;4202649e7b66472e970ea49d00010ce0</title>
<path fill="none" stroke="#7b8894" d="M582.25,-470C582.25,-470 625.9,-470 625.9,-470"/>
<polygon fill="#7b8894" stroke="#7b8894" points="625.9,-473.5 635.9,-470 625.9,-466.5 625.9,-473.5"/>
</g>
<!-- e03d6524ec9e4ad49118fa6ca641b700 -->
<g id="node9" class="node">
<title>e03d6524ec9e4ad49118fa6ca641b700</title>
<image xlink:href="/home/emumford/NativeLinuxProjects/Rinna/.venv/lib/python3.13/site-packages/resources/generic/database/sql.png" width="101px" height="101px" preserveAspectRatio="xMinYMin meet" x="791" y="-610.5"/>
<text text-anchor="middle" x="841.5" y="-495.1" font-family="Sans-Serif" font-size="13.00" fill="#2d3436">SQLite Database</text>
</g>
<!-- 4202649e7b66472e970ea49d00010ce0&#45;&gt;e03d6524ec9e4ad49118fa6ca641b700 -->
<g id="edge7" class="edge">
<title>4202649e7b66472e970ea49d00010ce0&#45;&gt;e03d6524ec9e4ad49118fa6ca641b700</title>
<path fill="none" stroke="#7b8894" d="M737.25,-515C737.25,-515 780.9,-515 780.9,-515"/>
<polygon fill="#7b8894" stroke="#7b8894" points="780.9,-518.5 790.9,-515 780.9,-511.5 780.9,-518.5"/>
</g>
<!-- aef10e0e4bb5491fa288ccdcdef09420 -->
<g id="node10" class="node">
<title>aef10e0e4bb5491fa288ccdcdef09420</title>
<image xlink:href="/home/emumford/NativeLinuxProjects/Rinna/.venv/lib/python3.13/site-packages/resources/generic/storage/storage.png" width="101px" height="101px" preserveAspectRatio="xMinYMin meet" x="791" y="-430.5"/>
<text text-anchor="middle" x="841.5" y="-315.1" font-family="Sans-Serif" font-size="13.00" fill="#2d3436">In&#45;Memory Store</text>
</g>
<!-- 4202649e7b66472e970ea49d00010ce0&#45;&gt;aef10e0e4bb5491fa288ccdcdef09420 -->
<g id="edge8" class="edge">
<title>4202649e7b66472e970ea49d00010ce0&#45;&gt;aef10e0e4bb5491fa288ccdcdef09420</title>
<path fill="none" stroke="#7b8894" d="M737.25,-425C737.25,-425 780.9,-425 780.9,-425"/>
<polygon fill="#7b8894" stroke="#7b8894" points="780.9,-428.5 790.9,-425 780.9,-421.5 780.9,-428.5"/>
</g>
<!-- 31f8974b85b54e078cbb299158d9497d -->
<g id="node4" class="node">
<title>31f8974b85b54e078cbb299158d9497d</title>
<image xlink:href="/home/emumford/NativeLinuxProjects/Rinna/.venv/lib/python3.13/site-packages/resources/programming/language/java.png" width="101px" height="101px" preserveAspectRatio="xMinYMin meet" x="171" y="-700.5"/>
<text text-anchor="middle" x="221.5" y="-585.1" font-family="Sans-Serif" font-size="13.00" fill="#2d3436">Workflow Service</text>
</g>
<!-- 31f8974b85b54e078cbb299158d9497d&#45;&gt;9ee05fc83b44447fabee650f7f34a631 -->
<g id="edge3" class="edge">
<title>31f8974b85b54e078cbb299158d9497d&#45;&gt;9ee05fc83b44447fabee650f7f34a631</title>
<path fill="none" stroke="#7b8894" d="M272.29,-605C311.81,-605 360,-605 360,-605 360,-605 360,-548.69 360,-548.69"/>
<polygon fill="#7b8894" stroke="#7b8894" points="363.5,-548.69 360,-538.69 356.5,-548.69 363.5,-548.69"/>
</g>
<!-- 1c8ba42f5446455d95aefe4983efe387 -->
<g id="node5" class="node">
<title>1c8ba42f5446455d95aefe4983efe387</title>
<image xlink:href="/home/emumford/NativeLinuxProjects/Rinna/.venv/lib/python3.13/site-packages/resources/programming/language/java.png" width="101px" height="101px" preserveAspectRatio="xMinYMin meet" x="171" y="-880.5"/>
<text text-anchor="middle" x="221.5" y="-765.1" font-family="Sans-Serif" font-size="13.00" fill="#2d3436">Item Service</text>
</g>
<!-- 1c8ba42f5446455d95aefe4983efe387&#45;&gt;9ee05fc83b44447fabee650f7f34a631 -->
<g id="edge4" class="edge">
<title>1c8ba42f5446455d95aefe4983efe387&#45;&gt;9ee05fc83b44447fabee650f7f34a631</title>
<path fill="none" stroke="#7b8894" d="M272.32,-830C323.21,-830 394,-830 394,-830 394,-830 394,-548.56 394,-548.56"/>
<polygon fill="#7b8894" stroke="#7b8894" points="397.5,-548.56 394,-538.56 390.5,-548.56 397.5,-548.56"/>
</g>
<!-- 293ea6ccf3364c38b1287a4362a4b64e -->
<g id="node6" class="node">
<title>293ea6ccf3364c38b1287a4362a4b64e</title>
<image xlink:href="/home/emumford/NativeLinuxProjects/Rinna/.venv/lib/python3.13/site-packages/resources/programming/language/java.png" width="101px" height="101px" preserveAspectRatio="xMinYMin meet" x="171" y="-340.5"/>
<text text-anchor="middle" x="221.5" y="-225.1" font-family="Sans-Serif" font-size="13.00" fill="#2d3436">Release Service</text>
</g>
<!-- 293ea6ccf3364c38b1287a4362a4b64e&#45;&gt;9ee05fc83b44447fabee650f7f34a631 -->
<g id="edge5" class="edge">
<title>293ea6ccf3364c38b1287a4362a4b64e&#45;&gt;9ee05fc83b44447fabee650f7f34a631</title>
<path fill="none" stroke="#7b8894" d="M272.29,-335C311.81,-335 360,-335 360,-335 360,-335 360,-391.31 360,-391.31"/>
<polygon fill="#7b8894" stroke="#7b8894" points="356.5,-391.31 360,-401.31 363.5,-391.31 356.5,-391.31"/>
</g>
<!-- 98ccaf10d6e84d6f9a765b9ef1e19282 -->
<g id="node7" class="node">
<title>98ccaf10d6e84d6f9a765b9ef1e19282</title>
<image xlink:href="/home/emumford/NativeLinuxProjects/Rinna/.venv/lib/python3.13/site-packages/resources/programming/language/java.png" width="101px" height="101px" preserveAspectRatio="xMinYMin meet" x="171" y="-160.5"/>
<text text-anchor="middle" x="221.5" y="-45.1" font-family="Sans-Serif" font-size="13.00" fill="#2d3436">Queue Service</text>
</g>
<!-- 98ccaf10d6e84d6f9a765b9ef1e19282&#45;&gt;9ee05fc83b44447fabee650f7f34a631 -->
<g id="edge6" class="edge">
<title>98ccaf10d6e84d6f9a765b9ef1e19282&#45;&gt;9ee05fc83b44447fabee650f7f34a631</title>
<path fill="none" stroke="#7b8894" d="M272.32,-110C323.21,-110 394,-110 394,-110 394,-110 394,-391.44 394,-391.44"/>
<polygon fill="#7b8894" stroke="#7b8894" points="390.5,-391.44 394,-401.44 397.5,-391.44 390.5,-391.44"/>
</g>
<!-- 240c111742594afda20acd9db4a86396 -->
<g id="node8" class="node">
<title>240c111742594afda20acd9db4a86396</title>
<image xlink:href="/home/emumford/NativeLinuxProjects/Rinna/.venv/lib/python3.13/site-packages/resources/programming/language/java.png" width="101px" height="101px" preserveAspectRatio="xMinYMin meet" x="171" y="-520.5"/>
<text text-anchor="middle" x="221.5" y="-405.1" font-family="Sans-Serif" font-size="13.00" fill="#2d3436">Document Service</text>
</g>
<!-- bfecd3a2acf5442b9a0b68071d1143eb -->
<g id="node11" class="node">
<title>bfecd3a2acf5442b9a0b68071d1143eb</title>
<image xlink:href="/home/emumford/NativeLinuxProjects/Rinna/.venv/lib/python3.13/site-packages/resources/programming/language/go.png" width="101px" height="101px" preserveAspectRatio="xMinYMin meet" x="16" y="-610.5"/>
<text text-anchor="middle" x="66.5" y="-495.1" font-family="Sans-Serif" font-size="13.00" fill="#2d3436">REST API</text>
</g>
<!-- bfecd3a2acf5442b9a0b68071d1143eb&#45;&gt;31f8974b85b54e078cbb299158d9497d -->
<g id="edge9" class="edge">
<title>bfecd3a2acf5442b9a0b68071d1143eb&#45;&gt;31f8974b85b54e078cbb299158d9497d</title>
<path fill="none" stroke="#7b8894" d="M117.25,-597.17C117.25,-597.17 160.9,-597.17 160.9,-597.17"/>
<polygon fill="#7b8894" stroke="#7b8894" points="160.9,-600.67 170.9,-597.17 160.9,-593.67 160.9,-600.67"/>
</g>
<!-- bfecd3a2acf5442b9a0b68071d1143eb&#45;&gt;1c8ba42f5446455d95aefe4983efe387 -->
<g id="edge10" class="edge">
<title>bfecd3a2acf5442b9a0b68071d1143eb&#45;&gt;1c8ba42f5446455d95aefe4983efe387</title>
<path fill="none" stroke="#7b8894" d="M117.07,-612.83C138.23,-612.83 158,-612.83 158,-612.83 158,-612.83 158,-777.17 158,-777.17 158,-777.17 160.85,-777.17 160.85,-777.17"/>
<polygon fill="#7b8894" stroke="#7b8894" points="160.85,-780.67 170.85,-777.17 160.85,-773.67 160.85,-780.67"/>
</g>
<!-- bfecd3a2acf5442b9a0b68071d1143eb&#45;&gt;293ea6ccf3364c38b1287a4362a4b64e -->
<g id="edge11" class="edge">
<title>bfecd3a2acf5442b9a0b68071d1143eb&#45;&gt;293ea6ccf3364c38b1287a4362a4b64e</title>
<path fill="none" stroke="#7b8894" d="M117.33,-515C131.94,-515 144,-515 144,-515 144,-515 144,-335 144,-335 144,-335 160.67,-335 160.67,-335"/>
<polygon fill="#7b8894" stroke="#7b8894" points="160.67,-338.5 170.67,-335 160.67,-331.5 160.67,-338.5"/>
</g>
<!-- bfecd3a2acf5442b9a0b68071d1143eb&#45;&gt;98ccaf10d6e84d6f9a765b9ef1e19282 -->
<g id="edge12" class="edge">
<title>bfecd3a2acf5442b9a0b68071d1143eb&#45;&gt;98ccaf10d6e84d6f9a765b9ef1e19282</title>
<path fill="none" stroke="#7b8894" d="M117,-503.25C125.16,-503.25 131,-503.25 131,-503.25 131,-503.25 131,-110 131,-110 131,-110 160.96,-110 160.96,-110"/>
<polygon fill="#7b8894" stroke="#7b8894" points="160.96,-113.5 170.96,-110 160.96,-106.5 160.96,-113.5"/>
</g>
<!-- bfecd3a2acf5442b9a0b68071d1143eb&#45;&gt;240c111742594afda20acd9db4a86396 -->
<g id="edge13" class="edge">
<title>bfecd3a2acf5442b9a0b68071d1143eb&#45;&gt;240c111742594afda20acd9db4a86396</title>
<path fill="none" stroke="#7b8894" d="M117.25,-526.75C117.25,-526.75 160.9,-526.75 160.9,-526.75"/>
<polygon fill="#7b8894" stroke="#7b8894" points="160.9,-530.25 170.9,-526.75 160.9,-523.25 160.9,-530.25"/>
</g>
<!-- eb911edf0efd452d9b1fd26bfeac3342 -->
<g id="node12" class="node">
<title>eb911edf0efd452d9b1fd26bfeac3342</title>
<image xlink:href="/home/emumford/NativeLinuxProjects/Rinna/.venv/lib/python3.13/site-packages/resources/programming/language/go.png" width="101px" height="101px" preserveAspectRatio="xMinYMin meet" x="16" y="-790.5"/>
<text text-anchor="middle" x="66.5" y="-675.1" font-family="Sans-Serif" font-size="13.00" fill="#2d3436">Webhook Handler</text>
</g>
<!-- eb911edf0efd452d9b1fd26bfeac3342&#45;&gt;1c8ba42f5446455d95aefe4983efe387 -->
<g id="edge14" class="edge">
<title>eb911edf0efd452d9b1fd26bfeac3342&#45;&gt;1c8ba42f5446455d95aefe4983efe387</title>
<path fill="none" stroke="#7b8894" d="M117.25,-792.83C117.25,-792.83 160.9,-792.83 160.9,-792.83"/>
<polygon fill="#7b8894" stroke="#7b8894" points="160.9,-796.33 170.9,-792.83 160.9,-789.33 160.9,-796.33"/>
</g>
<!-- 46ca5fd16d3e49bbac77f359ca040bf5 -->
<g id="node13" class="node">
<title>46ca5fd16d3e49bbac77f359ca040bf5</title>
<image xlink:href="/home/emumford/NativeLinuxProjects/Rinna/.venv/lib/python3.13/site-packages/resources/programming/language/go.png" width="101px" height="101px" preserveAspectRatio="xMinYMin meet" x="16" y="-430.5"/>
<text text-anchor="middle" x="66.5" y="-315.1" font-family="Sans-Serif" font-size="13.00" fill="#2d3436">Health Check</text>
</g>
</g>
</svg>
