<?xml version="1.0" encoding="UTF-8" standalone="no"?>
<!DOCTYPE svg PUBLIC "-//W3C//DTD SVG 1.1//EN"
 "http://www.w3.org/Graphics/SVG/1.1/DTD/svg11.dtd">
<!-- Generated by graphviz version 2.43.0 (0)
 -->
<!-- Title: Rinna Container Diagram Pages: 1 -->
<svg width="1034pt" height="1084pt"
 viewBox="0.00 0.00 1034.00 1084.00" xmlns="http://www.w3.org/2000/svg" xmlns:xlink="http://www.w3.org/1999/xlink">
<g id="graph0" class="graph" transform="scale(1 1) rotate(0) translate(144 940)">
<title>Rinna Container Diagram</title>
<polygon fill="white" stroke="transparent" points="-144,144 -144,-940 890,-940 890,144 -144,144"/>
<text text-anchor="middle" x="373" y="-9" font-family="Sans-Serif" font-size="15.00" fill="#2d3436">Rinna Container Diagram</text>
<g id="clust1" class="cluster">
<title>cluster_Rinna System</title>
<path fill="#e5f5fd" stroke="#aeb6be" d="M151,-396C151,-396 726,-396 726,-396 732,-396 738,-402 738,-408 738,-408 738,-776 738,-776 738,-782 732,-788 726,-788 726,-788 151,-788 151,-788 145,-788 139,-782 139,-776 139,-776 139,-408 139,-408 139,-402 145,-396 151,-396"/>
<text text-anchor="middle" x="188" y="-774.4" font-family="Sans-Serif" font-size="12.00" fill="#2d3436">Rinna System</text>
</g>
<g id="clust2" class="cluster">
<title>cluster_Frontend</title>
<path fill="#ebf3e7" stroke="#aeb6be" d="M159,-404C159,-404 252,-404 252,-404 258,-404 264,-410 264,-416 264,-416 264,-747 264,-747 264,-753 258,-759 252,-759 252,-759 159,-759 159,-759 153,-759 147,-753 147,-747 147,-747 147,-416 147,-416 147,-410 153,-404 159,-404"/>
<text text-anchor="middle" x="181.5" y="-745.4" font-family="Sans-Serif" font-size="12.00" fill="#2d3436">Frontend</text>
</g>
<g id="clust3" class="cluster">
<title>cluster_Backend Services</title>
<path fill="#ebf3e7" stroke="#aeb6be" d="M314,-404C314,-404 562,-404 562,-404 568,-404 574,-410 574,-416 574,-416 574,-747 574,-747 574,-753 568,-759 562,-759 562,-759 314,-759 314,-759 308,-759 302,-753 302,-747 302,-747 302,-416 302,-416 302,-410 308,-404 314,-404"/>
<text text-anchor="middle" x="363" y="-745.4" font-family="Sans-Serif" font-size="12.00" fill="#2d3436">Backend Services</text>
</g>
<g id="clust4" class="cluster">
<title>cluster_Data Storage</title>
<path fill="#ebf3e7" stroke="#aeb6be" d="M625,-404C625,-404 718,-404 718,-404 724,-404 730,-410 730,-416 730,-416 730,-747 730,-747 730,-753 724,-759 718,-759 718,-759 625,-759 625,-759 619,-759 613,-753 613,-747 613,-747 613,-416 613,-416 613,-410 619,-404 625,-404"/>
<text text-anchor="middle" x="661" y="-745.4" font-family="Sans-Serif" font-size="12.00" fill="#2d3436">Data Storage</text>
</g>
<g id="clust5" class="cluster">
<title>cluster_External Systems</title>
<path fill="#e5f5fd" stroke="#aeb6be" d="M624,-33C624,-33 719,-33 719,-33 725,-33 731,-39 731,-45 731,-45 731,-376 731,-376 731,-382 725,-388 719,-388 719,-388 624,-388 624,-388 618,-388 612,-382 612,-376 612,-376 612,-45 612,-45 612,-39 618,-33 624,-33"/>
<text text-anchor="middle" x="671.5" y="-374.4" font-family="Sans-Serif" font-size="12.00" fill="#2d3436">External Systems</text>
</g>
<!-- 5b480bece30d490a935eeea6f258e7c8 -->
<g id="node1" class="node">
<title>5b480bece30d490a935eeea6f258e7c8</title>
<image xlink:href="/home/emumford/NativeLinuxProjects/Rinna/.venv/lib/python3.13/site-packages/resources/onprem/client/user.png" width="101px" height="101px" preserveAspectRatio="xMinYMin meet" x="0" y="-711.5"/>
<text text-anchor="middle" x="50.5" y="-596.1" font-family="Sans-Serif" font-size="13.00" fill="#2d3436">Developer</text>
</g>
<!-- f67744e6fa714c0a8d7ed0d0fea1b35b -->
<g id="node3" class="node">
<title>f67744e6fa714c0a8d7ed0d0fea1b35b</title>
<image xlink:href="/home/emumford/NativeLinuxProjects/Rinna/.venv/lib/python3.13/site-packages/resources/programming/language/python.png" width="101px" height="101px" preserveAspectRatio="xMinYMin meet" x="155" y="-711.5"/>
<text text-anchor="middle" x="205.5" y="-596.1" font-family="Sans-Serif" font-size="13.00" fill="#2d3436">CLI Tool</text>
</g>
<!-- 5b480bece30d490a935eeea6f258e7c8&#45;&gt;f67744e6fa714c0a8d7ed0d0fea1b35b -->
<g id="edge1" class="edge">
<title>5b480bece30d490a935eeea6f258e7c8&#45;&gt;f67744e6fa714c0a8d7ed0d0fea1b35b</title>
<path fill="none" stroke="#7b8894" d="M101.25,-661C101.25,-661 144.9,-661 144.9,-661"/>
<polygon fill="#7b8894" stroke="#7b8894" points="144.9,-664.5 154.9,-661 144.9,-657.5 144.9,-664.5"/>
</g>
<!-- 6ab86fcd69e944bbb22bc0f0af58103d -->
<g id="node2" class="node">
<title>6ab86fcd69e944bbb22bc0f0af58103d</title>
<image xlink:href="/home/emumford/NativeLinuxProjects/Rinna/.venv/lib/python3.13/site-packages/resources/onprem/client/user.png" width="101px" height="101px" preserveAspectRatio="xMinYMin meet" x="0" y="-531.5"/>
<text text-anchor="middle" x="50.5" y="-416.1" font-family="Sans-Serif" font-size="13.00" fill="#2d3436">Project Manager</text>
</g>
<!-- f4c1de56f20845f89ab739604f81b133 -->
<g id="node4" class="node">
<title>f4c1de56f20845f89ab739604f81b133</title>
<image xlink:href="/home/emumford/NativeLinuxProjects/Rinna/.venv/lib/python3.13/site-packages/resources/programming/framework/spring.png" width="101px" height="101px" preserveAspectRatio="xMinYMin meet" x="155" y="-531.5"/>
<text text-anchor="middle" x="205.5" y="-416.1" font-family="Sans-Serif" font-size="13.00" fill="#2d3436">Web Interface</text>
</g>
<!-- 6ab86fcd69e944bbb22bc0f0af58103d&#45;&gt;f4c1de56f20845f89ab739604f81b133 -->
<g id="edge5" class="edge">
<title>6ab86fcd69e944bbb22bc0f0af58103d&#45;&gt;f4c1de56f20845f89ab739604f81b133</title>
<path fill="none" stroke="#7b8894" d="M101.25,-481C101.25,-481 144.9,-481 144.9,-481"/>
<polygon fill="#7b8894" stroke="#7b8894" points="144.9,-484.5 154.9,-481 144.9,-477.5 144.9,-484.5"/>
</g>
<!-- 238ba0c1a397497d982aa7a37c6e6364 -->
<g id="node5" class="node">
<title>238ba0c1a397497d982aa7a37c6e6364</title>
<image xlink:href="/home/emumford/NativeLinuxProjects/Rinna/.venv/lib/python3.13/site-packages/resources/programming/language/go.png" width="101px" height="101px" preserveAspectRatio="xMinYMin meet" x="310" y="-621.5"/>
<text text-anchor="middle" x="360.5" y="-506.1" font-family="Sans-Serif" font-size="13.00" fill="#2d3436">API Server</text>
</g>
<!-- f67744e6fa714c0a8d7ed0d0fea1b35b&#45;&gt;238ba0c1a397497d982aa7a37c6e6364 -->
<g id="edge2" class="edge">
<title>f67744e6fa714c0a8d7ed0d0fea1b35b&#45;&gt;238ba0c1a397497d982aa7a37c6e6364</title>
<path fill="none" stroke="#7b8894" d="M256.25,-616C256.25,-616 299.9,-616 299.9,-616"/>
<polygon fill="#7b8894" stroke="#7b8894" points="299.9,-619.5 309.9,-616 299.9,-612.5 299.9,-619.5"/>
</g>
<!-- f4c1de56f20845f89ab739604f81b133&#45;&gt;238ba0c1a397497d982aa7a37c6e6364 -->
<g id="edge6" class="edge">
<title>f4c1de56f20845f89ab739604f81b133&#45;&gt;238ba0c1a397497d982aa7a37c6e6364</title>
<path fill="none" stroke="#7b8894" d="M256.25,-526C256.25,-526 299.9,-526 299.9,-526"/>
<polygon fill="#7b8894" stroke="#7b8894" points="299.9,-529.5 309.9,-526 299.9,-522.5 299.9,-529.5"/>
</g>
<!-- f16388d4a1eb4d8dab8833f1120e8260 -->
<g id="node6" class="node">
<title>f16388d4a1eb4d8dab8833f1120e8260</title>
<image xlink:href="/home/emumford/NativeLinuxProjects/Rinna/.venv/lib/python3.13/site-packages/resources/programming/language/java.png" width="101px" height="101px" preserveAspectRatio="xMinYMin meet" x="465" y="-531.5"/>
<text text-anchor="middle" x="515.5" y="-416.1" font-family="Sans-Serif" font-size="13.00" fill="#2d3436">Core Domain</text>
</g>
<!-- 238ba0c1a397497d982aa7a37c6e6364&#45;&gt;f16388d4a1eb4d8dab8833f1120e8260 -->
<g id="edge3" class="edge">
<title>238ba0c1a397497d982aa7a37c6e6364&#45;&gt;f16388d4a1eb4d8dab8833f1120e8260</title>
<path fill="none" stroke="#7b8894" d="M411.25,-526C411.25,-526 454.9,-526 454.9,-526"/>
<polygon fill="#7b8894" stroke="#7b8894" points="454.9,-529.5 464.9,-526 454.9,-522.5 454.9,-529.5"/>
</g>
<!-- bf98951a323f48a0b89d2f7b7ab22817 -->
<g id="node7" class="node">
<title>bf98951a323f48a0b89d2f7b7ab22817</title>
<image xlink:href="/home/emumford/NativeLinuxProjects/Rinna/.venv/lib/python3.13/site-packages/resources/programming/language/java.png" width="101px" height="101px" preserveAspectRatio="xMinYMin meet" x="465" y="-711.5"/>
<text text-anchor="middle" x="515.5" y="-596.1" font-family="Sans-Serif" font-size="13.00" fill="#2d3436">Document Service</text>
</g>
<!-- 238ba0c1a397497d982aa7a37c6e6364&#45;&gt;bf98951a323f48a0b89d2f7b7ab22817 -->
<g id="edge7" class="edge">
<title>238ba0c1a397497d982aa7a37c6e6364&#45;&gt;bf98951a323f48a0b89d2f7b7ab22817</title>
<path fill="none" stroke="#7b8894" d="M411.25,-616C411.25,-616 454.9,-616 454.9,-616"/>
<polygon fill="#7b8894" stroke="#7b8894" points="454.9,-619.5 464.9,-616 454.9,-612.5 454.9,-619.5"/>
</g>
<!-- 1c8b3a8939d24fe5aa00853881b4b7ca -->
<g id="node8" class="node">
<title>1c8b3a8939d24fe5aa00853881b4b7ca</title>
<image xlink:href="/home/emumford/NativeLinuxProjects/Rinna/.venv/lib/python3.13/site-packages/resources/generic/database/sql.png" width="101px" height="101px" preserveAspectRatio="xMinYMin meet" x="621" y="-531.5"/>
<text text-anchor="middle" x="671.5" y="-416.1" font-family="Sans-Serif" font-size="13.00" fill="#2d3436">Local Database</text>
</g>
<!-- f16388d4a1eb4d8dab8833f1120e8260&#45;&gt;1c8b3a8939d24fe5aa00853881b4b7ca -->
<g id="edge4" class="edge">
<title>f16388d4a1eb4d8dab8833f1120e8260&#45;&gt;1c8b3a8939d24fe5aa00853881b4b7ca</title>
<path fill="none" stroke="#7b8894" d="M566.15,-481C566.15,-481 610.84,-481 610.84,-481"/>
<polygon fill="#7b8894" stroke="#7b8894" points="610.84,-484.5 620.84,-481 610.84,-477.5 610.84,-484.5"/>
</g>
<!-- 3483b244ad4141ee9e1ecd9d14b5bac7 -->
<g id="node10" class="node">
<title>3483b244ad4141ee9e1ecd9d14b5bac7</title>
<image xlink:href="/home/emumford/NativeLinuxProjects/Rinna/.venv/lib/python3.13/site-packages/resources/onprem/vcs/git.png" width="101px" height="101px" preserveAspectRatio="xMinYMin meet" x="621" y="-340.5"/>
<text text-anchor="middle" x="671.5" y="-225.1" font-family="Sans-Serif" font-size="13.00" fill="#2d3436">GitHub</text>
</g>
<!-- f16388d4a1eb4d8dab8833f1120e8260&#45;&gt;3483b244ad4141ee9e1ecd9d14b5bac7 -->
<g id="edge9" class="edge">
<title>f16388d4a1eb4d8dab8833f1120e8260&#45;&gt;3483b244ad4141ee9e1ecd9d14b5bac7</title>
<path fill="none" stroke="#7b8894" d="M516,-412.31C516,-357.56 516,-290 516,-290 516,-290 610.58,-290 610.58,-290"/>
<polygon fill="#7b8894" stroke="#7b8894" points="610.58,-293.5 620.58,-290 610.58,-286.5 610.58,-293.5"/>
</g>
<!-- c0a25fe4659d420495c79a3dbd52d663 -->
<g id="node9" class="node">
<title>c0a25fe4659d420495c79a3dbd52d663</title>
<image xlink:href="/home/emumford/NativeLinuxProjects/Rinna/.venv/lib/python3.13/site-packages/resources/generic/storage/storage.png" width="101px" height="101px" preserveAspectRatio="xMinYMin meet" x="621" y="-711.5"/>
<text text-anchor="middle" x="671.5" y="-596.1" font-family="Sans-Serif" font-size="13.00" fill="#2d3436">Document Store</text>
</g>
<!-- bf98951a323f48a0b89d2f7b7ab22817&#45;&gt;c0a25fe4659d420495c79a3dbd52d663 -->
<g id="edge8" class="edge">
<title>bf98951a323f48a0b89d2f7b7ab22817&#45;&gt;c0a25fe4659d420495c79a3dbd52d663</title>
<path fill="none" stroke="#7b8894" d="M566.15,-661C566.15,-661 610.84,-661 610.84,-661"/>
<polygon fill="#7b8894" stroke="#7b8894" points="610.84,-664.5 620.84,-661 610.84,-657.5 610.84,-664.5"/>
</g>
<!-- 388b1efcccd14072945ee469f3cc818f -->
<g id="node11" class="node">
<title>388b1efcccd14072945ee469f3cc818f</title>
<image xlink:href="/home/emumford/NativeLinuxProjects/Rinna/.venv/lib/python3.13/site-packages/resources/onprem/compute/server.png" width="101px" height="101px" preserveAspectRatio="xMinYMin meet" x="621" y="-160.5"/>
<text text-anchor="middle" x="671.5" y="-45.1" font-family="Sans-Serif" font-size="13.00" fill="#2d3436">CI/CD Pipeline</text>
</g>
</g>
</svg>
