<?xml version="1.0" encoding="UTF-8" standalone="no"?>
<!DOCTYPE svg PUBLIC "-//W3C//DTD SVG 1.1//EN"
 "http://www.w3.org/Graphics/SVG/1.1/DTD/svg11.dtd">
<!-- Generated by graphviz version 2.43.0 (0)
 -->
<!-- Title: Rinna System Context Pages: 1 -->
<svg width="1026pt" height="1077pt"
 viewBox="0.00 0.00 1026.00 1076.50" xmlns="http://www.w3.org/2000/svg" xmlns:xlink="http://www.w3.org/1999/xlink">
<g id="graph0" class="graph" transform="scale(1 1) rotate(0) translate(144 932.5)">
<title>Rinna System Context</title>
<polygon fill="white" stroke="transparent" points="-144,144 -144,-932.5 882,-932.5 882,144 -144,144"/>
<text text-anchor="middle" x="369" y="-9" font-family="Sans-Serif" font-size="15.00" fill="#2d3436">Rinna System Context</text>
<g id="clust1" class="cluster">
<title>cluster_Rinna Workflow Management</title>
<path fill="#e5f5fd" stroke="#aeb6be" d="M159,-576C159,-576 718,-576 718,-576 724,-576 730,-582 730,-588 730,-588 730,-739 730,-739 730,-745 724,-751 718,-751 718,-751 159,-751 159,-751 153,-751 147,-745 147,-739 147,-739 147,-588 147,-588 147,-582 153,-576 159,-576"/>
<text text-anchor="middle" x="243.5" y="-737.4" font-family="Sans-Serif" font-size="12.00" fill="#2d3436">Rinna Workflow Management</text>
</g>
<g id="clust2" class="cluster">
<title>cluster_External Systems</title>
<path fill="#e5f5fd" stroke="#aeb6be" d="M624,-33C624,-33 719,-33 719,-33 725,-33 731,-39 731,-45 731,-45 731,-556 731,-556 731,-562 725,-568 719,-568 719,-568 624,-568 624,-568 618,-568 612,-562 612,-556 612,-556 612,-45 612,-45 612,-39 618,-33 624,-33"/>
<text text-anchor="middle" x="671.5" y="-554.4" font-family="Sans-Serif" font-size="12.00" fill="#2d3436">External Systems</text>
</g>
<!-- 2dcff42cc7a74652b661e6b90b463b97 -->
<g id="node1" class="node">
<title>2dcff42cc7a74652b661e6b90b463b97</title>
<image xlink:href="/home/emumford/NativeLinuxProjects/Rinna/.venv/lib/python3.13/site-packages/resources/onprem/client/users.png" width="101px" height="101px" preserveAspectRatio="xMinYMin meet" x="0" y="-770.5"/>
<text text-anchor="middle" x="50.5" y="-655.1" font-family="Sans-Serif" font-size="13.00" fill="#2d3436">Development Teams</text>
</g>
<!-- 67110ab3ccc94025a5fa18d90163042f -->
<g id="node3" class="node">
<title>67110ab3ccc94025a5fa18d90163042f</title>
<image xlink:href="/home/emumford/NativeLinuxProjects/Rinna/.venv/lib/python3.13/site-packages/resources/programming/language/go.png" width="101px" height="101px" preserveAspectRatio="xMinYMin meet" x="310" y="-703.5"/>
<text text-anchor="middle" x="360.5" y="-588.1" font-family="Sans-Serif" font-size="13.00" fill="#2d3436">API Server</text>
</g>
<!-- 2dcff42cc7a74652b661e6b90b463b97&#45;&gt;67110ab3ccc94025a5fa18d90163042f -->
<g id="edge5" class="edge">
<title>2dcff42cc7a74652b661e6b90b463b97&#45;&gt;67110ab3ccc94025a5fa18d90163042f</title>
<path fill="none" stroke="#7b8894" d="M101.08,-755C189.06,-755 361,-755 361,-755 361,-755 361,-731.6 361,-731.6"/>
<polygon fill="#7b8894" stroke="#7b8894" points="364.5,-731.6 361,-721.6 357.5,-731.6 364.5,-731.6"/>
</g>
<!-- 1f23047dbc344d7abd34e5948153bde1 -->
<g id="node4" class="node">
<title>1f23047dbc344d7abd34e5948153bde1</title>
<image xlink:href="/home/emumford/NativeLinuxProjects/Rinna/.venv/lib/python3.13/site-packages/resources/programming/language/python.png" width="101px" height="101px" preserveAspectRatio="xMinYMin meet" x="155" y="-703.5"/>
<text text-anchor="middle" x="205.5" y="-588.1" font-family="Sans-Serif" font-size="13.00" fill="#2d3436">CLI Tool</text>
</g>
<!-- 2dcff42cc7a74652b661e6b90b463b97&#45;&gt;1f23047dbc344d7abd34e5948153bde1 -->
<g id="edge1" class="edge">
<title>2dcff42cc7a74652b661e6b90b463b97&#45;&gt;1f23047dbc344d7abd34e5948153bde1</title>
<path fill="none" stroke="#7b8894" d="M101.25,-686.5C101.25,-686.5 144.9,-686.5 144.9,-686.5"/>
<polygon fill="#7b8894" stroke="#7b8894" points="144.9,-690 154.9,-686.5 144.9,-683 144.9,-690"/>
</g>
<!-- 7f62bc9e8e9144cfbae476836fe69424 -->
<g id="node2" class="node">
<title>7f62bc9e8e9144cfbae476836fe69424</title>
<image xlink:href="/home/emumford/NativeLinuxProjects/Rinna/.venv/lib/python3.13/site-packages/resources/programming/language/java.png" width="101px" height="101px" preserveAspectRatio="xMinYMin meet" x="465" y="-703.5"/>
<text text-anchor="middle" x="515.5" y="-588.1" font-family="Sans-Serif" font-size="13.00" fill="#2d3436">Rinna Core</text>
</g>
<!-- 165dbc639f924241a51b96631d3acf35 -->
<g id="node5" class="node">
<title>165dbc639f924241a51b96631d3acf35</title>
<image xlink:href="/home/emumford/NativeLinuxProjects/Rinna/.venv/lib/python3.13/site-packages/resources/generic/database/sql.png" width="101px" height="101px" preserveAspectRatio="xMinYMin meet" x="621" y="-703.5"/>
<text text-anchor="middle" x="671.5" y="-588.1" font-family="Sans-Serif" font-size="13.00" fill="#2d3436">Database</text>
</g>
<!-- 7f62bc9e8e9144cfbae476836fe69424&#45;&gt;165dbc639f924241a51b96631d3acf35 -->
<g id="edge4" class="edge">
<title>7f62bc9e8e9144cfbae476836fe69424&#45;&gt;165dbc639f924241a51b96631d3acf35</title>
<path fill="none" stroke="#7b8894" d="M566.15,-653C566.15,-653 610.84,-653 610.84,-653"/>
<polygon fill="#7b8894" stroke="#7b8894" points="610.84,-656.5 620.84,-653 610.84,-649.5 610.84,-656.5"/>
</g>
<!-- e0d58cb5fce54bba8667d9b509b1799f -->
<g id="node6" class="node">
<title>e0d58cb5fce54bba8667d9b509b1799f</title>
<image xlink:href="/home/emumford/NativeLinuxProjects/Rinna/.venv/lib/python3.13/site-packages/resources/onprem/vcs/git.png" width="101px" height="101px" preserveAspectRatio="xMinYMin meet" x="621" y="-340.5"/>
<text text-anchor="middle" x="671.5" y="-225.1" font-family="Sans-Serif" font-size="13.00" fill="#2d3436">Git Server</text>
</g>
<!-- 7f62bc9e8e9144cfbae476836fe69424&#45;&gt;e0d58cb5fce54bba8667d9b509b1799f -->
<g id="edge6" class="edge">
<title>7f62bc9e8e9144cfbae476836fe69424&#45;&gt;e0d58cb5fce54bba8667d9b509b1799f</title>
<path fill="none" stroke="#7b8894" d="M499,-584.3C499,-479.06 499,-290 499,-290 499,-290 610.68,-290 610.68,-290"/>
<polygon fill="#7b8894" stroke="#7b8894" points="610.68,-293.5 620.68,-290 610.68,-286.5 610.68,-293.5"/>
</g>
<!-- d76a87e5804a45789e2ff413e1cc2402 -->
<g id="node8" class="node">
<title>d76a87e5804a45789e2ff413e1cc2402</title>
<image xlink:href="/home/emumford/NativeLinuxProjects/Rinna/.venv/lib/python3.13/site-packages/resources/generic/storage/storage.png" width="101px" height="101px" preserveAspectRatio="xMinYMin meet" x="621" y="-520.5"/>
<text text-anchor="middle" x="671.5" y="-405.1" font-family="Sans-Serif" font-size="13.00" fill="#2d3436">Document Repository</text>
</g>
<!-- 7f62bc9e8e9144cfbae476836fe69424&#45;&gt;d76a87e5804a45789e2ff413e1cc2402 -->
<g id="edge7" class="edge">
<title>7f62bc9e8e9144cfbae476836fe69424&#45;&gt;d76a87e5804a45789e2ff413e1cc2402</title>
<path fill="none" stroke="#7b8894" d="M533,-584.34C533,-532.41 533,-470 533,-470 533,-470 610.71,-470 610.71,-470"/>
<polygon fill="#7b8894" stroke="#7b8894" points="610.71,-473.5 620.71,-470 610.71,-466.5 610.71,-473.5"/>
</g>
<!-- 67110ab3ccc94025a5fa18d90163042f&#45;&gt;7f62bc9e8e9144cfbae476836fe69424 -->
<g id="edge3" class="edge">
<title>67110ab3ccc94025a5fa18d90163042f&#45;&gt;7f62bc9e8e9144cfbae476836fe69424</title>
<path fill="none" stroke="#7b8894" d="M411.25,-653C411.25,-653 454.9,-653 454.9,-653"/>
<polygon fill="#7b8894" stroke="#7b8894" points="454.9,-656.5 464.9,-653 454.9,-649.5 454.9,-656.5"/>
</g>
<!-- dd882da1c4a34e30827e747cc0620173 -->
<g id="node7" class="node">
<title>dd882da1c4a34e30827e747cc0620173</title>
<image xlink:href="/home/emumford/NativeLinuxProjects/Rinna/.venv/lib/python3.13/site-packages/resources/onprem/compute/server.png" width="101px" height="101px" preserveAspectRatio="xMinYMin meet" x="621" y="-160.5"/>
<text text-anchor="middle" x="671.5" y="-45.1" font-family="Sans-Serif" font-size="13.00" fill="#2d3436">CI/CD System</text>
</g>
<!-- 67110ab3ccc94025a5fa18d90163042f&#45;&gt;dd882da1c4a34e30827e747cc0620173 -->
<g id="edge8" class="edge">
<title>67110ab3ccc94025a5fa18d90163042f&#45;&gt;dd882da1c4a34e30827e747cc0620173</title>
<path fill="none" stroke="#7b8894" d="M361,-584.23C361,-438.11 361,-110 361,-110 361,-110 610.92,-110 610.92,-110"/>
<polygon fill="#7b8894" stroke="#7b8894" points="610.92,-113.5 620.92,-110 610.92,-106.5 610.92,-113.5"/>
</g>
<!-- 1f23047dbc344d7abd34e5948153bde1&#45;&gt;67110ab3ccc94025a5fa18d90163042f -->
<g id="edge2" class="edge">
<title>1f23047dbc344d7abd34e5948153bde1&#45;&gt;67110ab3ccc94025a5fa18d90163042f</title>
<path fill="none" stroke="#7b8894" d="M256.25,-653C256.25,-653 299.9,-653 299.9,-653"/>
<polygon fill="#7b8894" stroke="#7b8894" points="299.9,-656.5 309.9,-653 299.9,-649.5 299.9,-656.5"/>
</g>
</g>
</svg>
