<?xml version="1.0" encoding="UTF-8" standalone="no"?>
<!DOCTYPE svg PUBLIC "-//W3C//DTD SVG 1.1//EN"
 "http://www.w3.org/Graphics/SVG/1.1/DTD/svg11.dtd">
<!-- Generated by graphviz version 2.43.0 (0)
 -->
<!-- Title: Rinna Code Diagram Pages: 1 -->
<svg width="998pt" height="885pt"
 viewBox="0.00 0.00 998.00 885.00" xmlns="http://www.w3.org/2000/svg" xmlns:xlink="http://www.w3.org/1999/xlink">
<g id="graph0" class="graph" transform="scale(1 1) rotate(0) translate(144 741)">
<title>Rinna Code Diagram</title>
<polygon fill="white" stroke="transparent" points="-144,144 -144,-741 854,-741 854,144 -144,144"/>
<text text-anchor="middle" x="355" y="-9" font-family="Sans-Serif" font-size="15.00" fill="#2d3436">Rinna Code Diagram</text>
<g id="clust1" class="cluster">
<title>cluster_Domain Model</title>
<path fill="#e5f5fd" stroke="#aeb6be" d="M20,-224C20,-224 690,-224 690,-224 696,-224 702,-230 702,-236 702,-236 702,-386 702,-386 702,-392 696,-398 690,-398 690,-398 20,-398 20,-398 14,-398 8,-392 8,-386 8,-386 8,-236 8,-236 8,-230 14,-224 20,-224"/>
<text text-anchor="middle" x="59.5" y="-384.4" font-family="Sans-Serif" font-size="12.00" fill="#2d3436">Domain Model</text>
</g>
<g id="clust2" class="cluster">
<title>cluster_Domain Services</title>
<path fill="#e5f5fd" stroke="#aeb6be" d="M20,-415C20,-415 690,-415 690,-415 696,-415 702,-421 702,-427 702,-427 702,-577 702,-577 702,-583 696,-589 690,-589 690,-589 20,-589 20,-589 14,-589 8,-583 8,-577 8,-577 8,-427 8,-427 8,-421 14,-415 20,-415"/>
<text text-anchor="middle" x="66.5" y="-575.4" font-family="Sans-Serif" font-size="12.00" fill="#2d3436">Domain Services</text>
</g>
<g id="clust3" class="cluster">
<title>cluster_Repositories</title>
<path fill="#e5f5fd" stroke="#aeb6be" d="M164,-33C164,-33 690,-33 690,-33 696,-33 702,-39 702,-45 702,-45 702,-195 702,-195 702,-201 696,-207 690,-207 690,-207 164,-207 164,-207 158,-207 152,-201 152,-195 152,-195 152,-45 152,-45 152,-39 158,-33 164,-33"/>
<text text-anchor="middle" x="196.5" y="-193.4" font-family="Sans-Serif" font-size="12.00" fill="#2d3436">Repositories</text>
</g>
<!-- b8e04ca8ab634b6f9bc91fa28b07e327 -->
<g id="node1" class="node">
<title>b8e04ca8ab634b6f9bc91fa28b07e327</title>
<image xlink:href="/home/emumford/NativeLinuxProjects/Rinna/.venv/lib/python3.13/site-packages/resources/programming/language/java.png" width="101px" height="101px" preserveAspectRatio="xMinYMin meet" x="592.5" y="-351"/>
<text text-anchor="middle" x="643" y="-235.6" font-family="Sans-Serif" font-size="13.00" fill="#2d3436">Project</text>
</g>
<!-- 9d4a967e62c04ed0b9aba527470e87ed -->
<g id="node11" class="node">
<title>9d4a967e62c04ed0b9aba527470e87ed</title>
<image xlink:href="/home/emumford/NativeLinuxProjects/Rinna/.venv/lib/python3.13/site-packages/resources/programming/language/java.png" width="101px" height="101px" preserveAspectRatio="xMinYMin meet" x="592.5" y="-160"/>
<text text-anchor="middle" x="643" y="-44.6" font-family="Sans-Serif" font-size="13.00" fill="#2d3436">ProjectRepository</text>
</g>
<!-- b8e04ca8ab634b6f9bc91fa28b07e327&#45;&gt;9d4a967e62c04ed0b9aba527470e87ed -->
<g id="edge2" class="edge">
<title>b8e04ca8ab634b6f9bc91fa28b07e327&#45;&gt;9d4a967e62c04ed0b9aba527470e87ed</title>
<path fill="none" stroke="#7b8894" d="M643,-231.81C643,-231.81 643,-188.22 643,-188.22"/>
<polygon fill="#7b8894" stroke="#7b8894" points="646.5,-188.22 643,-178.22 639.5,-188.22 646.5,-188.22"/>
</g>
<!-- 278a7f80f8c843c8b7f28932bff49c1d -->
<g id="node2" class="node">
<title>278a7f80f8c843c8b7f28932bff49c1d</title>
<image xlink:href="/home/emumford/NativeLinuxProjects/Rinna/.venv/lib/python3.13/site-packages/resources/programming/language/java.png" width="101px" height="101px" preserveAspectRatio="xMinYMin meet" x="304.5" y="-351"/>
<text text-anchor="middle" x="355" y="-235.6" font-family="Sans-Serif" font-size="13.00" fill="#2d3436">WorkItem</text>
</g>
<!-- 5a743d4e0e404ec696ce8f150c40930e -->
<g id="node12" class="node">
<title>5a743d4e0e404ec696ce8f150c40930e</title>
<image xlink:href="/home/emumford/NativeLinuxProjects/Rinna/.venv/lib/python3.13/site-packages/resources/programming/language/java.png" width="101px" height="101px" preserveAspectRatio="xMinYMin meet" x="304.5" y="-160"/>
<text text-anchor="middle" x="355" y="-44.6" font-family="Sans-Serif" font-size="13.00" fill="#2d3436">ItemRepository</text>
</g>
<!-- 278a7f80f8c843c8b7f28932bff49c1d&#45;&gt;5a743d4e0e404ec696ce8f150c40930e -->
<g id="edge4" class="edge">
<title>278a7f80f8c843c8b7f28932bff49c1d&#45;&gt;5a743d4e0e404ec696ce8f150c40930e</title>
<path fill="none" stroke="#7b8894" d="M355,-231.81C355,-231.81 355,-188.22 355,-188.22"/>
<polygon fill="#7b8894" stroke="#7b8894" points="358.5,-188.22 355,-178.22 351.5,-188.22 358.5,-188.22"/>
</g>
<!-- ecf1973518074ea5b35b798b087c9394 -->
<g id="node3" class="node">
<title>ecf1973518074ea5b35b798b087c9394</title>
<image xlink:href="/home/emumford/NativeLinuxProjects/Rinna/.venv/lib/python3.13/site-packages/resources/programming/language/java.png" width="101px" height="101px" preserveAspectRatio="xMinYMin meet" x="448.5" y="-351"/>
<text text-anchor="middle" x="499" y="-235.6" font-family="Sans-Serif" font-size="13.00" fill="#2d3436">Release</text>
</g>
<!-- 4f8ee9bdec8448f4a35fada08373309f -->
<g id="node13" class="node">
<title>4f8ee9bdec8448f4a35fada08373309f</title>
<image xlink:href="/home/emumford/NativeLinuxProjects/Rinna/.venv/lib/python3.13/site-packages/resources/programming/language/java.png" width="101px" height="101px" preserveAspectRatio="xMinYMin meet" x="448.5" y="-160"/>
<text text-anchor="middle" x="499" y="-44.6" font-family="Sans-Serif" font-size="13.00" fill="#2d3436">ReleaseRepository</text>
</g>
<!-- ecf1973518074ea5b35b798b087c9394&#45;&gt;4f8ee9bdec8448f4a35fada08373309f -->
<g id="edge6" class="edge">
<title>ecf1973518074ea5b35b798b087c9394&#45;&gt;4f8ee9bdec8448f4a35fada08373309f</title>
<path fill="none" stroke="#7b8894" d="M499,-231.81C499,-231.81 499,-188.22 499,-188.22"/>
<polygon fill="#7b8894" stroke="#7b8894" points="502.5,-188.22 499,-178.22 495.5,-188.22 502.5,-188.22"/>
</g>
<!-- 874fe8274eb049558ac4c953480aa65d -->
<g id="node4" class="node">
<title>874fe8274eb049558ac4c953480aa65d</title>
<image xlink:href="/home/emumford/NativeLinuxProjects/Rinna/.venv/lib/python3.13/site-packages/resources/programming/language/java.png" width="101px" height="101px" preserveAspectRatio="xMinYMin meet" x="16.5" y="-351"/>
<text text-anchor="middle" x="67" y="-235.6" font-family="Sans-Serif" font-size="13.00" fill="#2d3436">WorkQueue</text>
</g>
<!-- 6d5049b8fa9c4ed580312f3e0cf4df9f -->
<g id="node14" class="node">
<title>6d5049b8fa9c4ed580312f3e0cf4df9f</title>
<image xlink:href="/home/emumford/NativeLinuxProjects/Rinna/.venv/lib/python3.13/site-packages/resources/programming/language/java.png" width="101px" height="101px" preserveAspectRatio="xMinYMin meet" x="160.5" y="-160"/>
<text text-anchor="middle" x="211" y="-44.6" font-family="Sans-Serif" font-size="13.00" fill="#2d3436">QueueRepository</text>
</g>
<!-- 874fe8274eb049558ac4c953480aa65d&#45;&gt;6d5049b8fa9c4ed580312f3e0cf4df9f -->
<g id="edge8" class="edge">
<title>874fe8274eb049558ac4c953480aa65d&#45;&gt;6d5049b8fa9c4ed580312f3e0cf4df9f</title>
<path fill="none" stroke="#7b8894" d="M67,-231.91C67,-176.96 67,-109 67,-109 67,-109 150.23,-109 150.23,-109"/>
<polygon fill="#7b8894" stroke="#7b8894" points="150.23,-112.5 160.23,-109 150.23,-105.5 150.23,-112.5"/>
</g>
<!-- b25991f6f97b447c8291e945ed721152 -->
<g id="node5" class="node">
<title>b25991f6f97b447c8291e945ed721152</title>
<image xlink:href="/home/emumford/NativeLinuxProjects/Rinna/.venv/lib/python3.13/site-packages/resources/programming/language/java.png" width="101px" height="101px" preserveAspectRatio="xMinYMin meet" x="160.5" y="-351"/>
<text text-anchor="middle" x="211" y="-235.6" font-family="Sans-Serif" font-size="13.00" fill="#2d3436">WorkflowState</text>
</g>
<!-- a9e35d1999964b8e8bb60b4e3f7f63a1 -->
<g id="node6" class="node">
<title>a9e35d1999964b8e8bb60b4e3f7f63a1</title>
<image xlink:href="/home/emumford/NativeLinuxProjects/Rinna/.venv/lib/python3.13/site-packages/resources/programming/language/java.png" width="101px" height="101px" preserveAspectRatio="xMinYMin meet" x="592.5" y="-542"/>
<text text-anchor="middle" x="643" y="-426.6" font-family="Sans-Serif" font-size="13.00" fill="#2d3436">ProjectService</text>
</g>
<!-- a9e35d1999964b8e8bb60b4e3f7f63a1&#45;&gt;b8e04ca8ab634b6f9bc91fa28b07e327 -->
<g id="edge1" class="edge">
<title>a9e35d1999964b8e8bb60b4e3f7f63a1&#45;&gt;b8e04ca8ab634b6f9bc91fa28b07e327</title>
<path fill="none" stroke="#7b8894" d="M643,-422.81C643,-422.81 643,-379.22 643,-379.22"/>
<polygon fill="#7b8894" stroke="#7b8894" points="646.5,-379.22 643,-369.22 639.5,-379.22 646.5,-379.22"/>
</g>
<!-- 9cf6ad5d410a462dbedd00c41505101c -->
<g id="node7" class="node">
<title>9cf6ad5d410a462dbedd00c41505101c</title>
<image xlink:href="/home/emumford/NativeLinuxProjects/Rinna/.venv/lib/python3.13/site-packages/resources/programming/language/java.png" width="101px" height="101px" preserveAspectRatio="xMinYMin meet" x="304.5" y="-542"/>
<text text-anchor="middle" x="355" y="-426.6" font-family="Sans-Serif" font-size="13.00" fill="#2d3436">ItemService</text>
</g>
<!-- 9cf6ad5d410a462dbedd00c41505101c&#45;&gt;278a7f80f8c843c8b7f28932bff49c1d -->
<g id="edge3" class="edge">
<title>9cf6ad5d410a462dbedd00c41505101c&#45;&gt;278a7f80f8c843c8b7f28932bff49c1d</title>
<path fill="none" stroke="#7b8894" d="M371.83,-422.81C371.83,-422.81 371.83,-379.22 371.83,-379.22"/>
<polygon fill="#7b8894" stroke="#7b8894" points="375.33,-379.22 371.83,-369.22 368.33,-379.22 375.33,-379.22"/>
</g>
<!-- 76de2c5590914362981f37e820be224f -->
<g id="node8" class="node">
<title>76de2c5590914362981f37e820be224f</title>
<image xlink:href="/home/emumford/NativeLinuxProjects/Rinna/.venv/lib/python3.13/site-packages/resources/programming/language/java.png" width="101px" height="101px" preserveAspectRatio="xMinYMin meet" x="448.5" y="-542"/>
<text text-anchor="middle" x="499" y="-426.6" font-family="Sans-Serif" font-size="13.00" fill="#2d3436">ReleaseService</text>
</g>
<!-- 76de2c5590914362981f37e820be224f&#45;&gt;ecf1973518074ea5b35b798b087c9394 -->
<g id="edge5" class="edge">
<title>76de2c5590914362981f37e820be224f&#45;&gt;ecf1973518074ea5b35b798b087c9394</title>
<path fill="none" stroke="#7b8894" d="M499,-422.81C499,-422.81 499,-379.22 499,-379.22"/>
<polygon fill="#7b8894" stroke="#7b8894" points="502.5,-379.22 499,-369.22 495.5,-379.22 502.5,-379.22"/>
</g>
<!-- aebac5a37d894a28bba4dc09dabea29a -->
<g id="node9" class="node">
<title>aebac5a37d894a28bba4dc09dabea29a</title>
<image xlink:href="/home/emumford/NativeLinuxProjects/Rinna/.venv/lib/python3.13/site-packages/resources/programming/language/java.png" width="101px" height="101px" preserveAspectRatio="xMinYMin meet" x="16.5" y="-542"/>
<text text-anchor="middle" x="67" y="-426.6" font-family="Sans-Serif" font-size="13.00" fill="#2d3436">QueueService</text>
</g>
<!-- aebac5a37d894a28bba4dc09dabea29a&#45;&gt;874fe8274eb049558ac4c953480aa65d -->
<g id="edge7" class="edge">
<title>aebac5a37d894a28bba4dc09dabea29a&#45;&gt;874fe8274eb049558ac4c953480aa65d</title>
<path fill="none" stroke="#7b8894" d="M67,-422.81C67,-422.81 67,-379.22 67,-379.22"/>
<polygon fill="#7b8894" stroke="#7b8894" points="70.5,-379.22 67,-369.22 63.5,-379.22 70.5,-379.22"/>
</g>
<!-- abf19e635fd648b1bfb8a124e62bd1ac -->
<g id="node10" class="node">
<title>abf19e635fd648b1bfb8a124e62bd1ac</title>
<image xlink:href="/home/emumford/NativeLinuxProjects/Rinna/.venv/lib/python3.13/site-packages/resources/programming/language/java.png" width="101px" height="101px" preserveAspectRatio="xMinYMin meet" x="160.5" y="-542"/>
<text text-anchor="middle" x="211" y="-426.6" font-family="Sans-Serif" font-size="13.00" fill="#2d3436">WorkflowService</text>
</g>
<!-- abf19e635fd648b1bfb8a124e62bd1ac&#45;&gt;278a7f80f8c843c8b7f28932bff49c1d -->
<g id="edge10" class="edge">
<title>abf19e635fd648b1bfb8a124e62bd1ac&#45;&gt;278a7f80f8c843c8b7f28932bff49c1d</title>
<path fill="none" stroke="#7b8894" d="M227.83,-422.86C227.83,-407.67 227.83,-396 227.83,-396 227.83,-396 338.17,-396 338.17,-396 338.17,-396 338.17,-379.14 338.17,-379.14"/>
<polygon fill="#7b8894" stroke="#7b8894" points="341.67,-379.14 338.17,-369.14 334.67,-379.14 341.67,-379.14"/>
</g>
<!-- abf19e635fd648b1bfb8a124e62bd1ac&#45;&gt;b25991f6f97b447c8291e945ed721152 -->
<g id="edge9" class="edge">
<title>abf19e635fd648b1bfb8a124e62bd1ac&#45;&gt;b25991f6f97b447c8291e945ed721152</title>
<path fill="none" stroke="#7b8894" d="M194.17,-422.81C194.17,-422.81 194.17,-379.22 194.17,-379.22"/>
<polygon fill="#7b8894" stroke="#7b8894" points="197.67,-379.22 194.17,-369.22 190.67,-379.22 197.67,-379.22"/>
</g>
</g>
</svg>
