<?xml version="1.0" encoding="UTF-8" standalone="no"?>
<!DOCTYPE svg PUBLIC "-//W3C//DTD SVG 1.1//EN"
 "http://www.w3.org/Graphics/SVG/1.1/DTD/svg11.dtd">
<!-- Generated by graphviz version 2.43.0 (0)
 -->
<!-- Title: Rinna Code Diagram Pages: 1 -->
<svg width="998pt" height="885pt"
 viewBox="0.00 0.00 998.00 885.00" xmlns="http://www.w3.org/2000/svg" xmlns:xlink="http://www.w3.org/1999/xlink">
<g id="graph0" class="graph" transform="scale(1 1) rotate(0) translate(144 741)">
<title>Rinna Code Diagram</title>
<polygon fill="white" stroke="transparent" points="-144,144 -144,-741 854,-741 854,144 -144,144"/>
<text text-anchor="middle" x="355" y="-9" font-family="Sans-Serif" font-size="15.00" fill="#2d3436">Rinna Code Diagram</text>
<g id="clust1" class="cluster">
<title>cluster_Domain Model</title>
<path fill="#e5f5fd" stroke="#aeb6be" d="M20,-224C20,-224 690,-224 690,-224 696,-224 702,-230 702,-236 702,-236 702,-386 702,-386 702,-392 696,-398 690,-398 690,-398 20,-398 20,-398 14,-398 8,-392 8,-386 8,-386 8,-236 8,-236 8,-230 14,-224 20,-224"/>
<text text-anchor="middle" x="59.5" y="-384.4" font-family="Sans-Serif" font-size="12.00" fill="#2d3436">Domain Model</text>
</g>
<g id="clust2" class="cluster">
<title>cluster_Domain Services</title>
<path fill="#e5f5fd" stroke="#aeb6be" d="M20,-415C20,-415 690,-415 690,-415 696,-415 702,-421 702,-427 702,-427 702,-577 702,-577 702,-583 696,-589 690,-589 690,-589 20,-589 20,-589 14,-589 8,-583 8,-577 8,-577 8,-427 8,-427 8,-421 14,-415 20,-415"/>
<text text-anchor="middle" x="66.5" y="-575.4" font-family="Sans-Serif" font-size="12.00" fill="#2d3436">Domain Services</text>
</g>
<g id="clust3" class="cluster">
<title>cluster_Repositories</title>
<path fill="#e5f5fd" stroke="#aeb6be" d="M164,-33C164,-33 690,-33 690,-33 696,-33 702,-39 702,-45 702,-45 702,-195 702,-195 702,-201 696,-207 690,-207 690,-207 164,-207 164,-207 158,-207 152,-201 152,-195 152,-195 152,-45 152,-45 152,-39 158,-33 164,-33"/>
<text text-anchor="middle" x="196.5" y="-193.4" font-family="Sans-Serif" font-size="12.00" fill="#2d3436">Repositories</text>
</g>
<!-- 1cd3943707244f81afdd65e6b363210a -->
<g id="node1" class="node">
<title>1cd3943707244f81afdd65e6b363210a</title>
<image xlink:href="/home/emumford/NativeLinuxProjects/Rinna/.venv/lib/python3.13/site-packages/resources/programming/language/java.png" width="101px" height="101px" preserveAspectRatio="xMinYMin meet" x="592.5" y="-351"/>
<text text-anchor="middle" x="643" y="-235.6" font-family="Sans-Serif" font-size="13.00" fill="#2d3436">Project</text>
</g>
<!-- a451d609dfe74e4197cf847d8d90dc27 -->
<g id="node11" class="node">
<title>a451d609dfe74e4197cf847d8d90dc27</title>
<image xlink:href="/home/emumford/NativeLinuxProjects/Rinna/.venv/lib/python3.13/site-packages/resources/programming/language/java.png" width="101px" height="101px" preserveAspectRatio="xMinYMin meet" x="592.5" y="-160"/>
<text text-anchor="middle" x="643" y="-44.6" font-family="Sans-Serif" font-size="13.00" fill="#2d3436">ProjectRepository</text>
</g>
<!-- 1cd3943707244f81afdd65e6b363210a&#45;&gt;a451d609dfe74e4197cf847d8d90dc27 -->
<g id="edge2" class="edge">
<title>1cd3943707244f81afdd65e6b363210a&#45;&gt;a451d609dfe74e4197cf847d8d90dc27</title>
<path fill="none" stroke="#7b8894" d="M643,-231.81C643,-231.81 643,-188.22 643,-188.22"/>
<polygon fill="#7b8894" stroke="#7b8894" points="646.5,-188.22 643,-178.22 639.5,-188.22 646.5,-188.22"/>
</g>
<!-- 8f78b0d8fb2746b183d403a69ec248b7 -->
<g id="node2" class="node">
<title>8f78b0d8fb2746b183d403a69ec248b7</title>
<image xlink:href="/home/emumford/NativeLinuxProjects/Rinna/.venv/lib/python3.13/site-packages/resources/programming/language/java.png" width="101px" height="101px" preserveAspectRatio="xMinYMin meet" x="304.5" y="-351"/>
<text text-anchor="middle" x="355" y="-235.6" font-family="Sans-Serif" font-size="13.00" fill="#2d3436">WorkItem</text>
</g>
<!-- e1d85909cf8b44a686f20db15c4b26f3 -->
<g id="node12" class="node">
<title>e1d85909cf8b44a686f20db15c4b26f3</title>
<image xlink:href="/home/emumford/NativeLinuxProjects/Rinna/.venv/lib/python3.13/site-packages/resources/programming/language/java.png" width="101px" height="101px" preserveAspectRatio="xMinYMin meet" x="304.5" y="-160"/>
<text text-anchor="middle" x="355" y="-44.6" font-family="Sans-Serif" font-size="13.00" fill="#2d3436">ItemRepository</text>
</g>
<!-- 8f78b0d8fb2746b183d403a69ec248b7&#45;&gt;e1d85909cf8b44a686f20db15c4b26f3 -->
<g id="edge4" class="edge">
<title>8f78b0d8fb2746b183d403a69ec248b7&#45;&gt;e1d85909cf8b44a686f20db15c4b26f3</title>
<path fill="none" stroke="#7b8894" d="M355,-231.81C355,-231.81 355,-188.22 355,-188.22"/>
<polygon fill="#7b8894" stroke="#7b8894" points="358.5,-188.22 355,-178.22 351.5,-188.22 358.5,-188.22"/>
</g>
<!-- 8db70455bf7b41a18119ee94b256c951 -->
<g id="node3" class="node">
<title>8db70455bf7b41a18119ee94b256c951</title>
<image xlink:href="/home/emumford/NativeLinuxProjects/Rinna/.venv/lib/python3.13/site-packages/resources/programming/language/java.png" width="101px" height="101px" preserveAspectRatio="xMinYMin meet" x="448.5" y="-351"/>
<text text-anchor="middle" x="499" y="-235.6" font-family="Sans-Serif" font-size="13.00" fill="#2d3436">Release</text>
</g>
<!-- d9be799d609d446b8f9f82ad7ba2334a -->
<g id="node13" class="node">
<title>d9be799d609d446b8f9f82ad7ba2334a</title>
<image xlink:href="/home/emumford/NativeLinuxProjects/Rinna/.venv/lib/python3.13/site-packages/resources/programming/language/java.png" width="101px" height="101px" preserveAspectRatio="xMinYMin meet" x="448.5" y="-160"/>
<text text-anchor="middle" x="499" y="-44.6" font-family="Sans-Serif" font-size="13.00" fill="#2d3436">ReleaseRepository</text>
</g>
<!-- 8db70455bf7b41a18119ee94b256c951&#45;&gt;d9be799d609d446b8f9f82ad7ba2334a -->
<g id="edge6" class="edge">
<title>8db70455bf7b41a18119ee94b256c951&#45;&gt;d9be799d609d446b8f9f82ad7ba2334a</title>
<path fill="none" stroke="#7b8894" d="M499,-231.81C499,-231.81 499,-188.22 499,-188.22"/>
<polygon fill="#7b8894" stroke="#7b8894" points="502.5,-188.22 499,-178.22 495.5,-188.22 502.5,-188.22"/>
</g>
<!-- f268bd695bcd49f596ac044c71107a5f -->
<g id="node4" class="node">
<title>f268bd695bcd49f596ac044c71107a5f</title>
<image xlink:href="/home/emumford/NativeLinuxProjects/Rinna/.venv/lib/python3.13/site-packages/resources/programming/language/java.png" width="101px" height="101px" preserveAspectRatio="xMinYMin meet" x="16.5" y="-351"/>
<text text-anchor="middle" x="67" y="-235.6" font-family="Sans-Serif" font-size="13.00" fill="#2d3436">WorkQueue</text>
</g>
<!-- c609e183b8e2483c910b6445dcb04c69 -->
<g id="node14" class="node">
<title>c609e183b8e2483c910b6445dcb04c69</title>
<image xlink:href="/home/emumford/NativeLinuxProjects/Rinna/.venv/lib/python3.13/site-packages/resources/programming/language/java.png" width="101px" height="101px" preserveAspectRatio="xMinYMin meet" x="160.5" y="-160"/>
<text text-anchor="middle" x="211" y="-44.6" font-family="Sans-Serif" font-size="13.00" fill="#2d3436">QueueRepository</text>
</g>
<!-- f268bd695bcd49f596ac044c71107a5f&#45;&gt;c609e183b8e2483c910b6445dcb04c69 -->
<g id="edge8" class="edge">
<title>f268bd695bcd49f596ac044c71107a5f&#45;&gt;c609e183b8e2483c910b6445dcb04c69</title>
<path fill="none" stroke="#7b8894" d="M67,-231.91C67,-176.96 67,-109 67,-109 67,-109 150.23,-109 150.23,-109"/>
<polygon fill="#7b8894" stroke="#7b8894" points="150.23,-112.5 160.23,-109 150.23,-105.5 150.23,-112.5"/>
</g>
<!-- 6c9d9743f3614cbfbe39f682cd254389 -->
<g id="node5" class="node">
<title>6c9d9743f3614cbfbe39f682cd254389</title>
<image xlink:href="/home/emumford/NativeLinuxProjects/Rinna/.venv/lib/python3.13/site-packages/resources/programming/language/java.png" width="101px" height="101px" preserveAspectRatio="xMinYMin meet" x="160.5" y="-351"/>
<text text-anchor="middle" x="211" y="-235.6" font-family="Sans-Serif" font-size="13.00" fill="#2d3436">WorkflowState</text>
</g>
<!-- 0c7206165fbd4f5fbf7b0c4dad6c43ac -->
<g id="node6" class="node">
<title>0c7206165fbd4f5fbf7b0c4dad6c43ac</title>
<image xlink:href="/home/emumford/NativeLinuxProjects/Rinna/.venv/lib/python3.13/site-packages/resources/programming/language/java.png" width="101px" height="101px" preserveAspectRatio="xMinYMin meet" x="592.5" y="-542"/>
<text text-anchor="middle" x="643" y="-426.6" font-family="Sans-Serif" font-size="13.00" fill="#2d3436">ProjectService</text>
</g>
<!-- 0c7206165fbd4f5fbf7b0c4dad6c43ac&#45;&gt;1cd3943707244f81afdd65e6b363210a -->
<g id="edge1" class="edge">
<title>0c7206165fbd4f5fbf7b0c4dad6c43ac&#45;&gt;1cd3943707244f81afdd65e6b363210a</title>
<path fill="none" stroke="#7b8894" d="M643,-422.81C643,-422.81 643,-379.22 643,-379.22"/>
<polygon fill="#7b8894" stroke="#7b8894" points="646.5,-379.22 643,-369.22 639.5,-379.22 646.5,-379.22"/>
</g>
<!-- a3c3e131761848bd9a493b284e4ee86c -->
<g id="node7" class="node">
<title>a3c3e131761848bd9a493b284e4ee86c</title>
<image xlink:href="/home/emumford/NativeLinuxProjects/Rinna/.venv/lib/python3.13/site-packages/resources/programming/language/java.png" width="101px" height="101px" preserveAspectRatio="xMinYMin meet" x="304.5" y="-542"/>
<text text-anchor="middle" x="355" y="-426.6" font-family="Sans-Serif" font-size="13.00" fill="#2d3436">ItemService</text>
</g>
<!-- a3c3e131761848bd9a493b284e4ee86c&#45;&gt;8f78b0d8fb2746b183d403a69ec248b7 -->
<g id="edge3" class="edge">
<title>a3c3e131761848bd9a493b284e4ee86c&#45;&gt;8f78b0d8fb2746b183d403a69ec248b7</title>
<path fill="none" stroke="#7b8894" d="M371.83,-422.81C371.83,-422.81 371.83,-379.22 371.83,-379.22"/>
<polygon fill="#7b8894" stroke="#7b8894" points="375.33,-379.22 371.83,-369.22 368.33,-379.22 375.33,-379.22"/>
</g>
<!-- eea338943b3e49ccae4427c6ac012e46 -->
<g id="node8" class="node">
<title>eea338943b3e49ccae4427c6ac012e46</title>
<image xlink:href="/home/emumford/NativeLinuxProjects/Rinna/.venv/lib/python3.13/site-packages/resources/programming/language/java.png" width="101px" height="101px" preserveAspectRatio="xMinYMin meet" x="448.5" y="-542"/>
<text text-anchor="middle" x="499" y="-426.6" font-family="Sans-Serif" font-size="13.00" fill="#2d3436">ReleaseService</text>
</g>
<!-- eea338943b3e49ccae4427c6ac012e46&#45;&gt;8db70455bf7b41a18119ee94b256c951 -->
<g id="edge5" class="edge">
<title>eea338943b3e49ccae4427c6ac012e46&#45;&gt;8db70455bf7b41a18119ee94b256c951</title>
<path fill="none" stroke="#7b8894" d="M499,-422.81C499,-422.81 499,-379.22 499,-379.22"/>
<polygon fill="#7b8894" stroke="#7b8894" points="502.5,-379.22 499,-369.22 495.5,-379.22 502.5,-379.22"/>
</g>
<!-- 41f01022b4ba469a9a1bb5fd42f5d61e -->
<g id="node9" class="node">
<title>41f01022b4ba469a9a1bb5fd42f5d61e</title>
<image xlink:href="/home/emumford/NativeLinuxProjects/Rinna/.venv/lib/python3.13/site-packages/resources/programming/language/java.png" width="101px" height="101px" preserveAspectRatio="xMinYMin meet" x="16.5" y="-542"/>
<text text-anchor="middle" x="67" y="-426.6" font-family="Sans-Serif" font-size="13.00" fill="#2d3436">QueueService</text>
</g>
<!-- 41f01022b4ba469a9a1bb5fd42f5d61e&#45;&gt;f268bd695bcd49f596ac044c71107a5f -->
<g id="edge7" class="edge">
<title>41f01022b4ba469a9a1bb5fd42f5d61e&#45;&gt;f268bd695bcd49f596ac044c71107a5f</title>
<path fill="none" stroke="#7b8894" d="M67,-422.81C67,-422.81 67,-379.22 67,-379.22"/>
<polygon fill="#7b8894" stroke="#7b8894" points="70.5,-379.22 67,-369.22 63.5,-379.22 70.5,-379.22"/>
</g>
<!-- 6f18aac15c66482abb6d497a094cf2d9 -->
<g id="node10" class="node">
<title>6f18aac15c66482abb6d497a094cf2d9</title>
<image xlink:href="/home/emumford/NativeLinuxProjects/Rinna/.venv/lib/python3.13/site-packages/resources/programming/language/java.png" width="101px" height="101px" preserveAspectRatio="xMinYMin meet" x="160.5" y="-542"/>
<text text-anchor="middle" x="211" y="-426.6" font-family="Sans-Serif" font-size="13.00" fill="#2d3436">WorkflowService</text>
</g>
<!-- 6f18aac15c66482abb6d497a094cf2d9&#45;&gt;8f78b0d8fb2746b183d403a69ec248b7 -->
<g id="edge10" class="edge">
<title>6f18aac15c66482abb6d497a094cf2d9&#45;&gt;8f78b0d8fb2746b183d403a69ec248b7</title>
<path fill="none" stroke="#7b8894" d="M227.83,-422.86C227.83,-407.67 227.83,-396 227.83,-396 227.83,-396 338.17,-396 338.17,-396 338.17,-396 338.17,-379.14 338.17,-379.14"/>
<polygon fill="#7b8894" stroke="#7b8894" points="341.67,-379.14 338.17,-369.14 334.67,-379.14 341.67,-379.14"/>
</g>
<!-- 6f18aac15c66482abb6d497a094cf2d9&#45;&gt;6c9d9743f3614cbfbe39f682cd254389 -->
<g id="edge9" class="edge">
<title>6f18aac15c66482abb6d497a094cf2d9&#45;&gt;6c9d9743f3614cbfbe39f682cd254389</title>
<path fill="none" stroke="#7b8894" d="M194.17,-422.81C194.17,-422.81 194.17,-379.22 194.17,-379.22"/>
<polygon fill="#7b8894" stroke="#7b8894" points="197.67,-379.22 194.17,-369.22 190.67,-379.22 197.67,-379.22"/>
</g>
</g>
</svg>
