<?xml version="1.0" encoding="UTF-8" standalone="no"?>
<!DOCTYPE svg PUBLIC "-//W3C//DTD SVG 1.1//EN"
 "http://www.w3.org/Graphics/SVG/1.1/DTD/svg11.dtd">
<!-- Generated by graphviz version 2.43.0 (0)
 -->
<!-- Title: Rinna Component Diagram Pages: 1 -->
<svg width="1196pt" height="1224pt"
 viewBox="0.00 0.00 1196.00 1224.00" xmlns="http://www.w3.org/2000/svg" xmlns:xlink="http://www.w3.org/1999/xlink">
<g id="graph0" class="graph" transform="scale(1 1) rotate(0) translate(144 1080)">
<title>Rinna Component Diagram</title>
<polygon fill="white" stroke="transparent" points="-144,144 -144,-1080 1052,-1080 1052,144 -144,144"/>
<text text-anchor="middle" x="454" y="-9" font-family="Sans-Serif" font-size="15.00" fill="#2d3436">Rinna Component Diagram</text>
<g id="clust1" class="cluster">
<title>cluster_Core Domain</title>
<path fill="#e5f5fd" stroke="#aeb6be" d="M330,-393C330,-393 733,-393 733,-393 739,-393 745,-399 745,-405 745,-405 745,-556 745,-556 745,-562 739,-568 733,-568 733,-568 330,-568 330,-568 324,-568 318,-562 318,-556 318,-556 318,-405 318,-405 318,-399 324,-393 330,-393"/>
<text text-anchor="middle" x="365.5" y="-554.4" font-family="Sans-Serif" font-size="12.00" fill="#2d3436">Core Domain</text>
</g>
<g id="clust2" class="cluster">
<title>cluster_Service Layer</title>
<path fill="#e5f5fd" stroke="#aeb6be" d="M175,-33C175,-33 268,-33 268,-33 274,-33 280,-39 280,-45 280,-45 280,-916 280,-916 280,-922 274,-928 268,-928 268,-928 175,-928 175,-928 169,-928 163,-922 163,-916 163,-916 163,-45 163,-45 163,-39 169,-33 175,-33"/>
<text text-anchor="middle" x="212" y="-914.4" font-family="Sans-Serif" font-size="12.00" fill="#2d3436">Service Layer</text>
</g>
<g id="clust3" class="cluster">
<title>cluster_Persistence</title>
<path fill="#e5f5fd" stroke="#aeb6be" d="M795,-303C795,-303 888,-303 888,-303 894,-303 900,-309 900,-315 900,-315 900,-646 900,-646 900,-652 894,-658 888,-658 888,-658 795,-658 795,-658 789,-658 783,-652 783,-646 783,-646 783,-315 783,-315 783,-309 789,-303 795,-303"/>
<text text-anchor="middle" x="825.5" y="-644.4" font-family="Sans-Serif" font-size="12.00" fill="#2d3436">Persistence</text>
</g>
<g id="clust4" class="cluster">
<title>cluster_API</title>
<path fill="#e5f5fd" stroke="#aeb6be" d="M20,-303C20,-303 113,-303 113,-303 119,-303 125,-309 125,-315 125,-315 125,-826 125,-826 125,-832 119,-838 113,-838 113,-838 20,-838 20,-838 14,-838 8,-832 8,-826 8,-826 8,-315 8,-315 8,-309 14,-303 20,-303"/>
<text text-anchor="middle" x="26" y="-824.4" font-family="Sans-Serif" font-size="12.00" fill="#2d3436">API</text>
</g>
<!-- 1ba891f8da0d4aa1acb56f90a86dcef5 -->
<g id="node1" class="node">
<title>1ba891f8da0d4aa1acb56f90a86dcef5</title>
<image xlink:href="/home/emumford/NativeLinuxProjects/Rinna/.venv/lib/python3.13/site-packages/resources/programming/language/java.png" width="101px" height="101px" preserveAspectRatio="xMinYMin meet" x="326" y="-520.5"/>
<text text-anchor="middle" x="376.5" y="-405.1" font-family="Sans-Serif" font-size="13.00" fill="#2d3436">Domain Model</text>
</g>
<!-- 32dcdd1363034501be549c396485f736 -->
<g id="node2" class="node">
<title>32dcdd1363034501be549c396485f736</title>
<image xlink:href="/home/emumford/NativeLinuxProjects/Rinna/.venv/lib/python3.13/site-packages/resources/programming/language/java.png" width="101px" height="101px" preserveAspectRatio="xMinYMin meet" x="481" y="-520.5"/>
<text text-anchor="middle" x="531.5" y="-405.1" font-family="Sans-Serif" font-size="13.00" fill="#2d3436">Domain Services</text>
</g>
<!-- 1ba891f8da0d4aa1acb56f90a86dcef5&#45;&gt;32dcdd1363034501be549c396485f736 -->
<g id="edge1" class="edge">
<title>1ba891f8da0d4aa1acb56f90a86dcef5&#45;&gt;32dcdd1363034501be549c396485f736</title>
<path fill="none" stroke="#7b8894" d="M427.25,-470C427.25,-470 470.9,-470 470.9,-470"/>
<polygon fill="#7b8894" stroke="#7b8894" points="470.9,-473.5 480.9,-470 470.9,-466.5 470.9,-473.5"/>
</g>
<!-- 233c753f53094c7488fab3b2b75dd976 -->
<g id="node3" class="node">
<title>233c753f53094c7488fab3b2b75dd976</title>
<image xlink:href="/home/emumford/NativeLinuxProjects/Rinna/.venv/lib/python3.13/site-packages/resources/programming/language/java.png" width="101px" height="101px" preserveAspectRatio="xMinYMin meet" x="636" y="-520.5"/>
<text text-anchor="middle" x="686.5" y="-405.1" font-family="Sans-Serif" font-size="13.00" fill="#2d3436">Repositories</text>
</g>
<!-- 32dcdd1363034501be549c396485f736&#45;&gt;233c753f53094c7488fab3b2b75dd976 -->
<g id="edge2" class="edge">
<title>32dcdd1363034501be549c396485f736&#45;&gt;233c753f53094c7488fab3b2b75dd976</title>
<path fill="none" stroke="#7b8894" d="M582.25,-470C582.25,-470 625.9,-470 625.9,-470"/>
<polygon fill="#7b8894" stroke="#7b8894" points="625.9,-473.5 635.9,-470 625.9,-466.5 625.9,-473.5"/>
</g>
<!-- 8adede9971534f6ab3be3c8c18c232c6 -->
<g id="node9" class="node">
<title>8adede9971534f6ab3be3c8c18c232c6</title>
<image xlink:href="/home/emumford/NativeLinuxProjects/Rinna/.venv/lib/python3.13/site-packages/resources/generic/database/sql.png" width="101px" height="101px" preserveAspectRatio="xMinYMin meet" x="791" y="-610.5"/>
<text text-anchor="middle" x="841.5" y="-495.1" font-family="Sans-Serif" font-size="13.00" fill="#2d3436">SQLite Database</text>
</g>
<!-- 233c753f53094c7488fab3b2b75dd976&#45;&gt;8adede9971534f6ab3be3c8c18c232c6 -->
<g id="edge7" class="edge">
<title>233c753f53094c7488fab3b2b75dd976&#45;&gt;8adede9971534f6ab3be3c8c18c232c6</title>
<path fill="none" stroke="#7b8894" d="M737.25,-515C737.25,-515 780.9,-515 780.9,-515"/>
<polygon fill="#7b8894" stroke="#7b8894" points="780.9,-518.5 790.9,-515 780.9,-511.5 780.9,-518.5"/>
</g>
<!-- 77dd7dcb6c0f43fca6ab9e6cec265219 -->
<g id="node10" class="node">
<title>77dd7dcb6c0f43fca6ab9e6cec265219</title>
<image xlink:href="/home/emumford/NativeLinuxProjects/Rinna/.venv/lib/python3.13/site-packages/resources/generic/storage/storage.png" width="101px" height="101px" preserveAspectRatio="xMinYMin meet" x="791" y="-430.5"/>
<text text-anchor="middle" x="841.5" y="-315.1" font-family="Sans-Serif" font-size="13.00" fill="#2d3436">In&#45;Memory Store</text>
</g>
<!-- 233c753f53094c7488fab3b2b75dd976&#45;&gt;77dd7dcb6c0f43fca6ab9e6cec265219 -->
<g id="edge8" class="edge">
<title>233c753f53094c7488fab3b2b75dd976&#45;&gt;77dd7dcb6c0f43fca6ab9e6cec265219</title>
<path fill="none" stroke="#7b8894" d="M737.25,-425C737.25,-425 780.9,-425 780.9,-425"/>
<polygon fill="#7b8894" stroke="#7b8894" points="780.9,-428.5 790.9,-425 780.9,-421.5 780.9,-428.5"/>
</g>
<!-- 1c681872eb314d1dbd45d19f93630615 -->
<g id="node4" class="node">
<title>1c681872eb314d1dbd45d19f93630615</title>
<image xlink:href="/home/emumford/NativeLinuxProjects/Rinna/.venv/lib/python3.13/site-packages/resources/programming/language/java.png" width="101px" height="101px" preserveAspectRatio="xMinYMin meet" x="171" y="-700.5"/>
<text text-anchor="middle" x="221.5" y="-585.1" font-family="Sans-Serif" font-size="13.00" fill="#2d3436">Workflow Service</text>
</g>
<!-- 1c681872eb314d1dbd45d19f93630615&#45;&gt;1ba891f8da0d4aa1acb56f90a86dcef5 -->
<g id="edge3" class="edge">
<title>1c681872eb314d1dbd45d19f93630615&#45;&gt;1ba891f8da0d4aa1acb56f90a86dcef5</title>
<path fill="none" stroke="#7b8894" d="M272.29,-605C311.81,-605 360,-605 360,-605 360,-605 360,-548.69 360,-548.69"/>
<polygon fill="#7b8894" stroke="#7b8894" points="363.5,-548.69 360,-538.69 356.5,-548.69 363.5,-548.69"/>
</g>
<!-- 1c73032c604d4e8e9c82721495037d7b -->
<g id="node5" class="node">
<title>1c73032c604d4e8e9c82721495037d7b</title>
<image xlink:href="/home/emumford/NativeLinuxProjects/Rinna/.venv/lib/python3.13/site-packages/resources/programming/language/java.png" width="101px" height="101px" preserveAspectRatio="xMinYMin meet" x="171" y="-880.5"/>
<text text-anchor="middle" x="221.5" y="-765.1" font-family="Sans-Serif" font-size="13.00" fill="#2d3436">Item Service</text>
</g>
<!-- 1c73032c604d4e8e9c82721495037d7b&#45;&gt;1ba891f8da0d4aa1acb56f90a86dcef5 -->
<g id="edge4" class="edge">
<title>1c73032c604d4e8e9c82721495037d7b&#45;&gt;1ba891f8da0d4aa1acb56f90a86dcef5</title>
<path fill="none" stroke="#7b8894" d="M272.32,-830C323.21,-830 394,-830 394,-830 394,-830 394,-548.56 394,-548.56"/>
<polygon fill="#7b8894" stroke="#7b8894" points="397.5,-548.56 394,-538.56 390.5,-548.56 397.5,-548.56"/>
</g>
<!-- 02cb4088ac4e4fbea42948119e771370 -->
<g id="node6" class="node">
<title>02cb4088ac4e4fbea42948119e771370</title>
<image xlink:href="/home/emumford/NativeLinuxProjects/Rinna/.venv/lib/python3.13/site-packages/resources/programming/language/java.png" width="101px" height="101px" preserveAspectRatio="xMinYMin meet" x="171" y="-340.5"/>
<text text-anchor="middle" x="221.5" y="-225.1" font-family="Sans-Serif" font-size="13.00" fill="#2d3436">Release Service</text>
</g>
<!-- 02cb4088ac4e4fbea42948119e771370&#45;&gt;1ba891f8da0d4aa1acb56f90a86dcef5 -->
<g id="edge5" class="edge">
<title>02cb4088ac4e4fbea42948119e771370&#45;&gt;1ba891f8da0d4aa1acb56f90a86dcef5</title>
<path fill="none" stroke="#7b8894" d="M272.29,-335C311.81,-335 360,-335 360,-335 360,-335 360,-391.31 360,-391.31"/>
<polygon fill="#7b8894" stroke="#7b8894" points="356.5,-391.31 360,-401.31 363.5,-391.31 356.5,-391.31"/>
</g>
<!-- 55f057553a0342aeb9bab5d68b5a4fad -->
<g id="node7" class="node">
<title>55f057553a0342aeb9bab5d68b5a4fad</title>
<image xlink:href="/home/emumford/NativeLinuxProjects/Rinna/.venv/lib/python3.13/site-packages/resources/programming/language/java.png" width="101px" height="101px" preserveAspectRatio="xMinYMin meet" x="171" y="-160.5"/>
<text text-anchor="middle" x="221.5" y="-45.1" font-family="Sans-Serif" font-size="13.00" fill="#2d3436">Queue Service</text>
</g>
<!-- 55f057553a0342aeb9bab5d68b5a4fad&#45;&gt;1ba891f8da0d4aa1acb56f90a86dcef5 -->
<g id="edge6" class="edge">
<title>55f057553a0342aeb9bab5d68b5a4fad&#45;&gt;1ba891f8da0d4aa1acb56f90a86dcef5</title>
<path fill="none" stroke="#7b8894" d="M272.32,-110C323.21,-110 394,-110 394,-110 394,-110 394,-391.44 394,-391.44"/>
<polygon fill="#7b8894" stroke="#7b8894" points="390.5,-391.44 394,-401.44 397.5,-391.44 390.5,-391.44"/>
</g>
<!-- 6da8a78c6cdc4316a8fe162f3566547d -->
<g id="node8" class="node">
<title>6da8a78c6cdc4316a8fe162f3566547d</title>
<image xlink:href="/home/emumford/NativeLinuxProjects/Rinna/.venv/lib/python3.13/site-packages/resources/programming/language/java.png" width="101px" height="101px" preserveAspectRatio="xMinYMin meet" x="171" y="-520.5"/>
<text text-anchor="middle" x="221.5" y="-405.1" font-family="Sans-Serif" font-size="13.00" fill="#2d3436">Document Service</text>
</g>
<!-- 28ce47146ef343e5aa627856d7514963 -->
<g id="node11" class="node">
<title>28ce47146ef343e5aa627856d7514963</title>
<image xlink:href="/home/emumford/NativeLinuxProjects/Rinna/.venv/lib/python3.13/site-packages/resources/programming/language/go.png" width="101px" height="101px" preserveAspectRatio="xMinYMin meet" x="16" y="-610.5"/>
<text text-anchor="middle" x="66.5" y="-495.1" font-family="Sans-Serif" font-size="13.00" fill="#2d3436">REST API</text>
</g>
<!-- 28ce47146ef343e5aa627856d7514963&#45;&gt;1c681872eb314d1dbd45d19f93630615 -->
<g id="edge9" class="edge">
<title>28ce47146ef343e5aa627856d7514963&#45;&gt;1c681872eb314d1dbd45d19f93630615</title>
<path fill="none" stroke="#7b8894" d="M117.25,-597.17C117.25,-597.17 160.9,-597.17 160.9,-597.17"/>
<polygon fill="#7b8894" stroke="#7b8894" points="160.9,-600.67 170.9,-597.17 160.9,-593.67 160.9,-600.67"/>
</g>
<!-- 28ce47146ef343e5aa627856d7514963&#45;&gt;1c73032c604d4e8e9c82721495037d7b -->
<g id="edge10" class="edge">
<title>28ce47146ef343e5aa627856d7514963&#45;&gt;1c73032c604d4e8e9c82721495037d7b</title>
<path fill="none" stroke="#7b8894" d="M117.07,-612.83C138.23,-612.83 158,-612.83 158,-612.83 158,-612.83 158,-777.17 158,-777.17 158,-777.17 160.85,-777.17 160.85,-777.17"/>
<polygon fill="#7b8894" stroke="#7b8894" points="160.85,-780.67 170.85,-777.17 160.85,-773.67 160.85,-780.67"/>
</g>
<!-- 28ce47146ef343e5aa627856d7514963&#45;&gt;02cb4088ac4e4fbea42948119e771370 -->
<g id="edge11" class="edge">
<title>28ce47146ef343e5aa627856d7514963&#45;&gt;02cb4088ac4e4fbea42948119e771370</title>
<path fill="none" stroke="#7b8894" d="M117.33,-515C131.94,-515 144,-515 144,-515 144,-515 144,-335 144,-335 144,-335 160.67,-335 160.67,-335"/>
<polygon fill="#7b8894" stroke="#7b8894" points="160.67,-338.5 170.67,-335 160.67,-331.5 160.67,-338.5"/>
</g>
<!-- 28ce47146ef343e5aa627856d7514963&#45;&gt;55f057553a0342aeb9bab5d68b5a4fad -->
<g id="edge12" class="edge">
<title>28ce47146ef343e5aa627856d7514963&#45;&gt;55f057553a0342aeb9bab5d68b5a4fad</title>
<path fill="none" stroke="#7b8894" d="M117,-503.25C125.16,-503.25 131,-503.25 131,-503.25 131,-503.25 131,-110 131,-110 131,-110 160.96,-110 160.96,-110"/>
<polygon fill="#7b8894" stroke="#7b8894" points="160.96,-113.5 170.96,-110 160.96,-106.5 160.96,-113.5"/>
</g>
<!-- 28ce47146ef343e5aa627856d7514963&#45;&gt;6da8a78c6cdc4316a8fe162f3566547d -->
<g id="edge13" class="edge">
<title>28ce47146ef343e5aa627856d7514963&#45;&gt;6da8a78c6cdc4316a8fe162f3566547d</title>
<path fill="none" stroke="#7b8894" d="M117.25,-526.75C117.25,-526.75 160.9,-526.75 160.9,-526.75"/>
<polygon fill="#7b8894" stroke="#7b8894" points="160.9,-530.25 170.9,-526.75 160.9,-523.25 160.9,-530.25"/>
</g>
<!-- 7beb83bf0ac94e8d8b404d28da1af492 -->
<g id="node12" class="node">
<title>7beb83bf0ac94e8d8b404d28da1af492</title>
<image xlink:href="/home/emumford/NativeLinuxProjects/Rinna/.venv/lib/python3.13/site-packages/resources/programming/language/go.png" width="101px" height="101px" preserveAspectRatio="xMinYMin meet" x="16" y="-790.5"/>
<text text-anchor="middle" x="66.5" y="-675.1" font-family="Sans-Serif" font-size="13.00" fill="#2d3436">Webhook Handler</text>
</g>
<!-- 7beb83bf0ac94e8d8b404d28da1af492&#45;&gt;1c73032c604d4e8e9c82721495037d7b -->
<g id="edge14" class="edge">
<title>7beb83bf0ac94e8d8b404d28da1af492&#45;&gt;1c73032c604d4e8e9c82721495037d7b</title>
<path fill="none" stroke="#7b8894" d="M117.25,-792.83C117.25,-792.83 160.9,-792.83 160.9,-792.83"/>
<polygon fill="#7b8894" stroke="#7b8894" points="160.9,-796.33 170.9,-792.83 160.9,-789.33 160.9,-796.33"/>
</g>
<!-- 7eb4c98a073f41588ac2d807aa66eb1f -->
<g id="node13" class="node">
<title>7eb4c98a073f41588ac2d807aa66eb1f</title>
<image xlink:href="/home/emumford/NativeLinuxProjects/Rinna/.venv/lib/python3.13/site-packages/resources/programming/language/go.png" width="101px" height="101px" preserveAspectRatio="xMinYMin meet" x="16" y="-430.5"/>
<text text-anchor="middle" x="66.5" y="-315.1" font-family="Sans-Serif" font-size="13.00" fill="#2d3436">Health Check</text>
</g>
</g>
</svg>
